{"asset":{"version":"2.0","generator":"babylon.js glTF exporter for 3dsmax 2018 v20210201.13"},"scene":0,"scenes":[{"nodes":[0,1]}],"nodes":[{"mesh":0,"translation":[-16.6349545,62.9554825,-0.136535645],"name":"Object003"},{"mesh":1,"name":"heiyiweike"}],"meshes":[{"primitives":[{"attributes":{"POSITION":1,"NORMAL":2,"COLOR_0":3,"TEXCOORD_0":4},"indices":0,"material":0}],"name":"Object003"},{"primitives":[{"attributes":{"POSITION":6,"NORMAL":7,"COLOR_0":8,"TEXCOORD_0":9},"indices":5,"material":1}],"name":"heiyiweike"}],"accessors":[{"bufferView":0,"componentType":5123,"count":846,"type":"SCALAR","name":"accessorIndices"},{"bufferView":1,"componentType":5126,"count":846,"max":[2.88554764,3.08171463,15.90368],"min":[-2.885559,-1.02494431,-16.1252174],"type":"VEC3","name":"accessorPositions"},{"bufferView":1,"byteOffset":10152,"componentType":5126,"count":846,"type":"VEC3","name":"accessorNormals"},{"bufferView":2,"componentType":5126,"count":846,"type":"VEC4","name":"accessorColors"},{"bufferView":3,"componentType":5126,"count":846,"type":"VEC2","name":"accessorUVs"},{"bufferView":0,"byteOffset":1692,"componentType":5123,"count":2838,"type":"SCALAR","name":"accessorIndices"},{"bufferView":1,"byteOffset":20304,"componentType":5126,"count":2838,"max":[68.71875,61.92205,28.2824135],"min":[-68.71876,-0.260231018,-28.2824249],"type":"VEC3","name":"accessorPositions"},{"bufferView":1,"byteOffset":54360,"componentType":5126,"count":2838,"type":"VEC3","name":"accessorNormals"},{"bufferView":2,"byteOffset":13536,"componentType":5126,"count":2838,"type":"VEC4","name":"accessorColors"},{"bufferView":3,"byteOffset":6768,"componentType":5126,"count":2838,"type":"VEC2","name":"accessorUVs"}],"bufferViews":[{"buffer":0,"byteLength":7368,"name":"bufferViewScalar"},{"buffer":0,"byteOffset":7368,"byteLength":88416,"byteStride":12,"name":"bufferViewFloatVec3"},{"buffer":0,"byteOffset":95784,"byteLength":58944,"byteStride":16,"name":"bufferViewFloatVec4"},{"buffer":0,"byteOffset":154728,"byteLength":29472,"byteStride":8,"name":"bufferViewFloatVec2"}],"buffers":[{"uri":"heiseyiweike.bin","byteLength":184200}],"materials":[{"pbrMetallicRoughness":{"baseColorTexture":{"index":0},"metallicFactor":0.0,"roughnessFactor":0.450053632},"name":"01 - Default"},{"pbrMetallicRoughness":{"baseColorTexture":{"index":1},"metallicFactor":0.0,"roughnessFactor":0.450053632},"name":"02 - Default"}],"textures":[{"sampler":0,"source":0,"name":"HD_jingche_diff.png"},{"sampler":0,"source":1,"name":"HD_yiweike_hei_diff.png"}],"images":[{"uri":"./HD_jingche_diff.png"},{"uri":"./HD_yiweike_hei_diff.png"}],"samplers":[{"magFilter":9729,"minFilter":9987}]}