{"asset":{"version":"2.0","generator":"babylon.js glTF exporter for 3dsmax 2018 v20210201.13"},"scene":0,"scenes":[{"nodes":[0]}],"nodes":[{"mesh":0,"translation":[2.05026E-07,0.0,0.0],"name":"消防车"}],"meshes":[{"primitives":[{"attributes":{"POSITION":1,"NORMAL":2,"TEXCOORD_0":3},"indices":0,"material":0}],"name":"消防车"}],"accessors":[{"bufferView":0,"componentType":5125,"count":454806,"type":"SCALAR","name":"accessorIndices"},{"bufferView":1,"componentType":5126,"count":454806,"max":[1.47413087,3.43593264,4.09701729],"min":[-1.47413111,-0.01867935,-4.09701633],"type":"VEC3","name":"accessorPositions"},{"bufferView":1,"byteOffset":5457672,"componentType":5126,"count":454806,"type":"VEC3","name":"accessorNormals"},{"bufferView":2,"componentType":5126,"count":454806,"type":"VEC2","name":"accessorUVs"}],"bufferViews":[{"buffer":0,"byteLength":1819224,"name":"bufferViewScalar"},{"buffer":0,"byteOffset":1819224,"byteLength":10915344,"byteStride":12,"name":"bufferViewFloatVec3"},{"buffer":0,"byteOffset":12734568,"byteLength":3638448,"byteStride":8,"name":"bufferViewFloatVec2"}],"buffers":[{"uri":"xiaofangche.bin","byteLength":16373016}],"materials":[{"pbrMetallicRoughness":{"baseColorTexture":{"index":0},"metallicFactor":0.0,"roughnessFactor":0.450053632},"name":"Material #2233908"}],"textures":[{"sampler":0,"source":0,"name":"HD_xiaofangche_diff.png"}],"images":[{"uri":"./HD_xiaofangche_diff.png"}],"samplers":[{"magFilter":9729,"minFilter":9987}]}