{"asset":{"version":"2.0","generator":"babylon.js glTF exporter for 3dsmax 2018 v20210201.13"},"scene":0,"scenes":[{"nodes":[0]}],"nodes":[{"mesh":0,"translation":[2.822876E-06,0.0,0.0],"rotation":[-8.742278E-08,0.0,0.0,1.0],"name":"消防车"}],"meshes":[{"primitives":[{"attributes":{"POSITION":1,"NORMAL":2,"TEXCOORD_0":3},"indices":0,"material":0}],"name":"消防车"}],"accessors":[{"bufferView":0,"componentType":5125,"count":311757,"type":"SCALAR","name":"accessorIndices"},{"bufferView":1,"componentType":5126,"count":311757,"max":[2.334915,3.52185535,3.37814975],"min":[-2.33491588,0.000559431,-3.37814856],"type":"VEC3","name":"accessorPositions"},{"bufferView":1,"byteOffset":3741084,"componentType":5126,"count":311757,"type":"VEC3","name":"accessorNormals"},{"bufferView":2,"componentType":5126,"count":311757,"type":"VEC2","name":"accessorUVs"}],"bufferViews":[{"buffer":0,"byteLength":1247028,"name":"bufferViewScalar"},{"buffer":0,"byteOffset":1247028,"byteLength":7482168,"byteStride":12,"name":"bufferViewFloatVec3"},{"buffer":0,"byteOffset":8729196,"byteLength":2494056,"byteStride":8,"name":"bufferViewFloatVec2"}],"buffers":[{"uri":"yidongkuaicanche.bin","byteLength":11223252}],"materials":[{"pbrMetallicRoughness":{"baseColorTexture":{"index":0},"metallicFactor":0.0,"roughnessFactor":0.450053632},"name":"Material #9343"}],"textures":[{"sampler":0,"source":0,"name":"HD_canche_diff.png"}],"images":[{"uri":"./HD_canche_diff.png"}],"samplers":[{"magFilter":9729,"minFilter":9987}]}