{"asset":{"version":"2.0","generator":"babylon.js glTF exporter for 3dsmax 2018 v20210201.13"},"scene":0,"scenes":[{"nodes":[0,1,2]}],"nodes":[{"mesh":0,"translation":[-0.115991972,1.04051721,1.00940037],"name":"Object002"},{"mesh":1,"translation":[-0.3451131,2.11935973,1.00603092],"name":"Object001"},{"mesh":2,"translation":[-0.3451131,2.11935973,1.00603092],"name":"Object003"}],"meshes":[{"primitives":[{"attributes":{"POSITION":1,"NORMAL":2,"TEXCOORD_0":3},"indices":0,"material":0}],"name":"Object002"},{"primitives":[{"attributes":{"POSITION":5,"NORMAL":6,"COLOR_0":7,"TEXCOORD_0":8},"indices":4,"material":1}],"name":"Object001"},{"primitives":[{"attributes":{"POSITION":10,"NORMAL":11,"COLOR_0":12,"TEXCOORD_0":13},"indices":9,"material":0}],"name":"Object003"}],"accessors":[{"bufferView":0,"componentType":5123,"count":2544,"type":"SCALAR","name":"accessorIndices"},{"bufferView":1,"componentType":5126,"count":2544,"max":[2.58363271,1.00603485,1.11757863],"min":[-2.3199718,-1.06231117,-1.11862564],"type":"VEC3","name":"accessorPositions"},{"bufferView":1,"byteOffset":30528,"componentType":5126,"count":2544,"type":"VEC3","name":"accessorNormals"},{"bufferView":2,"componentType":5126,"count":2544,"type":"VEC2","name":"accessorUVs"},{"bufferView":0,"byteOffset":5088,"componentType":5123,"count":846,"type":"SCALAR","name":"accessorIndices"},{"bufferView":1,"byteOffset":61056,"componentType":5126,"count":846,"max":[0.132201687,0.141189262,0.7286283],"min":[-0.132201687,-0.0469577,-0.7387777],"type":"VEC3","name":"accessorPositions"},{"bufferView":1,"byteOffset":71208,"componentType":5126,"count":846,"type":"VEC3","name":"accessorNormals"},{"bufferView":3,"componentType":5126,"count":846,"type":"VEC4","name":"accessorColors"},{"bufferView":2,"byteOffset":20352,"componentType":5126,"count":846,"type":"VEC2","name":"accessorUVs"},{"bufferView":0,"byteOffset":6780,"componentType":5123,"count":828,"type":"SCALAR","name":"accessorIndices"},{"bufferView":1,"byteOffset":81360,"componentType":5126,"count":828,"max":[0.1206633,-0.0473466478,0.7652991],"min":[-0.110520631,-0.141189113,-0.7652989],"type":"VEC3","name":"accessorPositions"},{"bufferView":1,"byteOffset":91296,"componentType":5126,"count":828,"type":"VEC3","name":"accessorNormals"},{"bufferView":3,"byteOffset":13536,"componentType":5126,"count":828,"type":"VEC4","name":"accessorColors"},{"bufferView":2,"byteOffset":27120,"componentType":5126,"count":828,"type":"VEC2","name":"accessorUVs"}],"bufferViews":[{"buffer":0,"byteLength":8436,"name":"bufferViewScalar"},{"buffer":0,"byteOffset":8436,"byteLength":101232,"byteStride":12,"name":"bufferViewFloatVec3"},{"buffer":0,"byteOffset":109668,"byteLength":33744,"byteStride":8,"name":"bufferViewFloatVec2"},{"buffer":0,"byteOffset":143412,"byteLength":26784,"byteStride":16,"name":"bufferViewFloatVec4"}],"buffers":[{"uri":"BJ80.bin","byteLength":170196}],"materials":[{"pbrMetallicRoughness":{"baseColorTexture":{"index":0},"metallicFactor":0.0,"roughnessFactor":0.450053632},"name":"01 - Default"},{"pbrMetallicRoughness":{"baseColorTexture":{"index":1},"metallicFactor":0.0,"roughnessFactor":0.450053632},"name":"Material #28"}],"textures":[{"sampler":0,"source":0,"name":"HD_tejingche_diff.png"},{"sampler":0,"source":1,"name":"HD_jingche_diff.png"}],"images":[{"uri":"./HD_tejingche_diff.png"},{"uri":"./HD_jingche_diff.png"}],"samplers":[{"magFilter":9729,"minFilter":9987}]}