{"asset":{"version":"2.0","generator":"babylon.js glTF exporter for 3dsmax 2018 v20210201.13"},"scene":0,"scenes":[{"nodes":[0]}],"nodes":[{"mesh":0,"translation":[-0.00779573666,0.0005746994,0.00219831057],"name":"weilan"}],"meshes":[{"primitives":[{"attributes":{"POSITION":1,"NORMAL":2,"TEXCOORD_0":3},"indices":0,"material":0}],"name":"weilan"}],"accessors":[{"bufferView":0,"componentType":5123,"count":840,"type":"SCALAR","name":"accessorIndices"},{"bufferView":1,"componentType":5126,"count":840,"max":[2.67244935,1.33169961,0.303870022],"min":[-0.0288699884,-6.484986E-08,-0.303870052],"type":"VEC3","name":"accessorPositions"},{"bufferView":1,"byteOffset":10080,"componentType":5126,"count":840,"type":"VEC3","name":"accessorNormals"},{"bufferView":2,"componentType":5126,"count":840,"type":"VEC2","name":"accessorUVs"}],"bufferViews":[{"buffer":0,"byteLength":1680,"name":"bufferViewScalar"},{"buffer":0,"byteOffset":1680,"byteLength":20160,"byteStride":12,"name":"bufferViewFloatVec3"},{"buffer":0,"byteOffset":21840,"byteLength":6720,"byteStride":8,"name":"bufferViewFloatVec2"}],"buffers":[{"uri":"weilan.bin","byteLength":28560}],"materials":[{"pbrMetallicRoughness":{"baseColorTexture":{"index":0},"metallicFactor":0.0,"roughnessFactor":0.450053632},"name":"Material #26"}],"textures":[{"sampler":0,"source":0,"name":"HD_weilan_diff.png"}],"images":[{"uri":"./HD_weilan_diff.png"}],"samplers":[{"magFilter":9729,"minFilter":9987}]}