{"asset":{"version":"2.0","generator":"babylon.js glTF exporter for 3dsmax 2018 v20210201.13"},"scene":0,"scenes":[{"nodes":[0,3,4]}],"nodes":[{"children":[1],"skin":0,"mesh":0,"translation":[0.0,0.0,0.00248799147],"name":"business02_m_highpoly"},{"children":[2],"translation":[0.00189058285,1.78342891,-0.00248792],"rotation":[6.879631E-08,-1.1920929E-06,-2.38418664E-07,1.0],"scale":[0.4369016,0.436901718,0.436901718],"name":"____003"},{"mesh":1,"translation":[-1.310456,-4.16968775,-0.0187831186],"rotation":[-3.55271368E-15,5.684343E-14,0.0,1.0],"scale":[1.00000012,1.0,1.0],"name":"____003 (1)"},{"translation":[0.0,0.0,0.00248799147],"name":"EnvironmentAmbientLight"},{"children":[5],"translation":[0.0,0.8838932,0.00248799147],"rotation":[0.0,-0.7071063,0.0,0.707107246],"name":"Bip01"},{"children":[6],"rotation":[-0.4999997,-0.4999997,0.499999881,0.5000008],"name":"Bip01_Pelvis"},{"children":[7,50,55],"translation":[0.130510315,2.61496126E-07,0.02920709],"rotation":[-2.14548254E-06,0.000398159085,7.16110151E-07,0.99999994],"name":"Bip01_Spine"},{"children":[8],"translation":[0.153964,-3.40049183E-10,0.000122598649],"name":"Bip01_Spine1"},{"children":[9],"translation":[0.153964117,-3.39990952E-10,0.000122598649],"name":"Bip01_Spine2"},{"children":[10,12,31],"translation":[0.15396376,-2.27475552E-10,8.201981E-05],"name":"Bip01_Neck"},{"children":[11],"translation":[0.10300611,0.0,0.0],"rotation":[1.20007533E-08,0.0503347,2.38116343E-07,0.998732448],"name":"Bip01_Head"},{"translation":[0.220306039,1.16415327E-13,1.525879E-08],"name":"Bip01_HeadNub"},{"children":[13],"translation":[-0.008128541,0.0391653068,0.00588612771],"rotation":[-0.6684949,-0.7437166,-0.000267203926,-0.0002951872],"scale":[1.00000012,1.00000012,1.0],"name":"Bip01_L_Clavicle"},{"children":[14],"translation":[0.1453974,0.0,0.0],"rotation":[0.03508183,0.04752338,-0.586939633,0.807473063],"scale":[1.0,1.0,1.00000012],"name":"Bip01_L_UpperArm"},{"children":[15],"translation":[0.280821174,6.103516E-08,1.525879E-08],"rotation":[0.000218272064,-0.115077876,-0.0871554539,0.9895257],"scale":[1.00000012,1.0,0.9999999],"name":"Bip01_L_Forearm"},{"children":[16,19,22,25,28],"translation":[0.2834978,-6.103516E-08,0.0],"rotation":[-0.7061341,0.03127609,0.0249958131,0.70694536],"scale":[0.9999999,1.0,1.0],"name":"Bip01_L_Hand"},{"children":[17],"translation":[0.0304124765,-0.04267889,-0.0185437016],"rotation":[0.599344254,-0.0295377169,-0.28973797,0.7456312],"scale":[1.0,0.99999994,1.00000024],"name":"Bip01_L_Finger0"},{"children":[18],"translation":[0.0547335222,-1.525879E-08,-3.051758E-08],"rotation":[6.44996E-09,0.238014892,-1.82891714E-15,0.9712615],"scale":[1.00000012,0.99999994,1.00000024],"name":"Bip01_L_Finger01"},{"translation":[0.04050238,-1.525879E-08,-3.81469745E-09],"rotation":[3.274181E-10,2.47382581E-09,0.0,1.0],"scale":[0.99999994,0.99999994,0.99999994],"name":"Bip01_L_Finger0Nub"},{"children":[20],"translation":[0.094277285,-0.033040788,-0.001219635],"rotation":[-0.00688716955,0.157458961,-0.060549695,0.985643446],"scale":[0.99999994,0.9999995,1.00000024],"name":"Bip01_L_Finger1"},{"children":[21],"translation":[0.04859711,-1.525879E-08,-7.629395E-08],"rotation":[5.79218939E-09,0.263218224,9.65365E-09,0.964736342],"scale":[1.0,0.9999999,1.00000012],"name":"Bip01_L_Finger11"},{"translation":[0.05886347,3.051758E-08,6.103516E-08],"rotation":[-3.7252903E-09,0.0,1.86264515E-09,1.0],"name":"Bip01_L_Finger1Nub"},{"children":[23],"translation":[0.0964453146,-0.0111528691,0.00363510149],"rotation":[-0.0003930626,0.160801023,-6.400547E-05,0.9869868],"scale":[0.9999998,0.999999762,0.9999999],"name":"Bip01_L_Finger2"},{"children":[24],"translation":[0.05518445,0.0,-6.103516E-08],"rotation":[-4.87705654E-10,0.297250241,1.46311752E-09,0.954799652],"scale":[0.99999994,0.9999999,1.0],"name":"Bip01_L_Finger21"},{"translation":[0.0590532273,5.722046E-09,0.0],"rotation":[9.313228E-10,-7.45058149E-09,-1.110223E-16,1.0],"scale":[1.0,0.9999998,0.99999994],"name":"Bip01_L_Finger2Nub"},{"children":[26],"translation":[0.09710498,0.0112972436,0.00558786048],"rotation":[0.00688569434,0.160653934,0.04461089,0.9859781],"scale":[0.999999464,0.9999994,0.9999999],"name":"Bip01_L_Finger3"},{"children":[27],"translation":[0.0483042,-7.629395E-09,7.629395E-08],"rotation":[-2.454918E-10,0.316999346,-3.927867E-09,0.94842577],"scale":[0.99999994,1.0,1.00000012],"name":"Bip01_L_Finger31"},{"translation":[0.0540632345,0.0,-6.103516E-08],"rotation":[0.0,2.23517418E-08,4.65661232E-10,1.0],"scale":[1.00000012,1.00000012,1.0],"name":"Bip01_L_Finger3Nub"},{"children":[29],"translation":[0.0963888,0.03374405,0.00343066431],"rotation":[0.008998852,0.160549372,0.0575778261,0.9853059],"scale":[0.9999994,0.999999344,0.99999994],"name":"Bip01_L_Finger4"},{"children":[30],"translation":[0.03543567,0.0,7.629395E-08],"rotation":[-4.87519969E-10,0.296078116,1.95007943E-09,0.9551638],"scale":[1.0,1.00000012,1.0],"name":"Bip01_L_Finger41"},{"translation":[0.04204822,0.0,0.0],"rotation":[0.0,-1.4901163E-08,-2.79396639E-09,1.0],"scale":[0.9999999,1.00000012,1.0],"name":"Bip01_L_Finger4Nub"},{"children":[32],"translation":[-0.008128541,-0.0391653255,0.00588591024],"rotation":[0.6684948,-0.7437168,0.000265071983,-0.000296982849],"scale":[1.00000012,1.00000012,0.99999994],"name":"Bip01_R_Clavicle"},{"children":[33],"translation":[0.1453974,0.0,-3.81469745E-09],"rotation":[-0.0350802056,0.0475212149,0.5869404,0.807472646],"scale":[0.99999994,1.0,0.99999994],"name":"Bip01_R_UpperArm"},{"children":[34],"translation":[0.2808213,3.051758E-08,-1.525879E-08],"rotation":[-0.000218411224,-0.1150725,0.08715549,0.9895263],"scale":[1.0,1.0,0.999999642],"name":"Bip01_R_Forearm"},{"children":[35,38,41,44,47],"translation":[0.283497751,0.0,-7.629395E-09],"rotation":[0.706133962,0.03127614,-0.0249957666,0.7069455],"scale":[1.0,1.0,1.00000012],"name":"Bip01_R_Hand"},{"children":[36],"translation":[0.030412538,0.0426788926,-0.0185437016],"rotation":[-0.5993442,-0.0295376964,0.2897381,0.7456312],"scale":[0.9999998,1.0,1.00000024],"name":"Bip01_R_Finger0"},{"children":[37],"translation":[0.0547335222,0.0,0.0],"rotation":[-1.00382591E-09,0.238014936,0.0,0.9712615],"scale":[1.00000024,1.00000012,1.00000024],"name":"Bip01_R_Finger01"},{"translation":[0.0405024439,-9.15527352E-08,-3.81469745E-09],"rotation":[-4.569302E-09,-4.17785522E-08,0.0,1.0],"scale":[0.9999999,-0.99999994,0.99999994],"name":"Bip01_R_Finger0Nub"},{"children":[39],"translation":[0.094277285,0.0330408,-0.001219635],"rotation":[0.006887116,0.157458887,0.0605497658,0.985643446],"scale":[0.99999994,0.9999999,1.00000036],"name":"Bip01_R_Finger1"},{"children":[40],"translation":[0.0485971719,-1.525879E-08,7.629395E-08],"rotation":[3.8614596E-09,0.263218164,-1.9307298E-09,0.964736342],"scale":[1.0,0.99999994,1.0],"name":"Bip01_R_Finger11"},{"translation":[0.05886347,0.0,3.051758E-08],"rotation":[-1.86264515E-09,-3.7252903E-08,3.7252903E-09,1.0],"scale":[1.0,-1.0,1.0],"name":"Bip01_R_Finger1Nub"},{"children":[42],"translation":[0.09644538,0.01115288,0.00363510149],"rotation":[0.000392954331,0.160801053,6.40063954E-05,0.9869868],"scale":[1.00000012,0.99999994,1.0],"name":"Bip01_R_Finger2"},{"children":[43],"translation":[0.0551845133,5.722046E-09,0.0],"rotation":[-2.43852882E-10,0.297250241,4.877057E-10,0.954799652],"scale":[0.99999994,1.0,0.9999999],"name":"Bip01_R_Finger21"},{"translation":[0.0590531044,1.90734872E-09,-6.103516E-08],"rotation":[-4.65661343E-10,-4.470349E-08,-4.65661343E-10,1.0],"scale":[0.9999999,-0.9999999,0.9999999],"name":"Bip01_R_Finger2Nub"},{"children":[45],"translation":[0.09710498,-0.0112972343,0.00558792148],"rotation":[-0.006885784,0.160653859,-0.0446108431,0.9859781],"scale":[0.9999998,0.999999642,1.00000012],"name":"Bip01_R_Finger3"},{"children":[46],"translation":[0.0483040176,1.525879E-08,0.0],"rotation":[2.70040834E-09,0.316999346,-2.45491671E-09,0.94842577],"scale":[1.00000012,1.0,1.00000024],"name":"Bip01_R_Finger31"},{"translation":[0.05406311,0.0,0.0],"rotation":[-9.313227E-10,-2.98023224E-08,-9.313227E-10,1.0],"scale":[1.0,-0.99999994,1.0],"name":"Bip01_R_Finger3Nub"},{"children":[48],"translation":[0.09638892,-0.0337440632,0.00343075581],"rotation":[-0.008998748,0.160549343,-0.0575777963,0.9853059],"scale":[0.999999464,0.9999997,1.00000012],"name":"Bip01_R_Finger4"},{"children":[49],"translation":[0.03543561,0.0,9.15527352E-08],"rotation":[-4.87519969E-10,0.296078116,-1.07254365E-08,0.9551637],"scale":[0.99999994,1.0,1.00000012],"name":"Bip01_R_Finger41"},{"translation":[0.04204828,0.0,1.22070318E-07],"rotation":[0.0,-2.98023224E-08,1.86264515E-09,1.0],"scale":[1.0,-1.0,1.0],"name":"Bip01_R_Finger4Nub"},{"children":[51],"translation":[-0.130486891,0.08520223,-0.02931081],"rotation":[0.00298006367,-0.0005893191,0.999549448,0.0298616048],"scale":[1.0,1.00000012,1.00000012],"name":"Bip01_L_Thigh"},{"children":[52],"translation":[0.3897842,0.0,-2.384186E-10],"rotation":[1.31268E-10,-0.0676505938,0.0,0.9977091],"scale":[1.0,0.99999994,1.0],"name":"Bip01_L_Calf"},{"children":[53],"translation":[0.422138155,1.525879E-08,-1.525879E-08],"rotation":[-0.05907993,0.06901402,0.0340885669,0.99528116],"scale":[1.0,0.9999999,1.00000012],"name":"Bip01_L_Foot"},{"children":[54],"translation":[0.0776755959,0.0,-0.123889692],"rotation":[1.89067783E-13,0.7071068,-1.521092E-13,0.7071067],"name":"Bip01_L_Toe0"},{"translation":[0.08441853,-1.525879E-08,-1.16415327E-13],"rotation":[0.0,-4.371138E-08,-7.178652E-15,1.0],"scale":[1.0,-1.0,1.0],"name":"Bip01_L_Toe0Nub"},{"children":[56],"translation":[-0.130486816,-0.0852021351,-0.0293112881],"rotation":[0.00297800475,0.0005865231,0.999549448,-0.0298617147],"scale":[1.00000012,1.00000012,1.00000012],"name":"Bip01_R_Thigh"},{"children":[57],"translation":[0.3897841,1.525879E-08,0.0],"rotation":[8.021934E-11,-0.06765511,-2.22554519E-16,0.9977088],"scale":[1.0,0.9999999,1.0],"name":"Bip01_R_Calf"},{"children":[58],"translation":[0.422138065,1.525879E-08,1.525879E-08],"rotation":[0.0590797327,0.0690164343,-0.0340888053,0.995281],"scale":[0.99999994,1.00000012,1.00000012],"name":"Bip01_R_Foot"},{"children":[59],"translation":[0.0776755959,1.525879E-08,-0.123889685],"rotation":[1.65304E-13,0.7071068,-1.457471E-13,0.7071067],"scale":[0.99999994,0.99999994,1.0],"name":"Bip01_R_Toe0"},{"translation":[0.08441852,-1.525879E-08,2.32830655E-13],"rotation":[-1.42108564E-14,-1.42108564E-14,-5.882908E-15,1.0],"scale":[0.99999994,0.99999994,1.0],"name":"Bip01_R_Toe0Nub"}],"meshes":[{"primitives":[{"attributes":{"POSITION":1,"NORMAL":2,"TEXCOORD_0":3,"JOINTS_0":4,"WEIGHTS_0":5},"indices":0,"material":0}],"name":"business02_m_highpoly"},{"primitives":[{"attributes":{"POSITION":7,"NORMAL":8,"TEXCOORD_0":9},"indices":6,"material":1}],"name":"____003"}],"accessors":[{"bufferView":0,"componentType":5123,"count":15246,"type":"SCALAR","name":"accessorIndices"},{"bufferView":1,"componentType":5126,"count":15246,"max":[0.301587284,1.825767,0.153777927],"min":[-0.301586062,-0.00198487379,-0.152653113],"type":"VEC3","name":"accessorPositions"},{"bufferView":1,"byteOffset":182952,"componentType":5126,"count":15246,"type":"VEC3","name":"accessorNormals"},{"bufferView":2,"componentType":5126,"count":15246,"type":"VEC2","name":"accessorUVs"},{"bufferView":3,"componentType":5123,"count":15246,"type":"VEC4","name":"accessorJoints"},{"bufferView":4,"componentType":5126,"count":15246,"type":"VEC4","name":"accessorWeights"},{"bufferView":0,"byteOffset":30492,"componentType":5123,"count":756,"type":"SCALAR","name":"accessorIndices"},{"bufferView":1,"byteOffset":365904,"componentType":5126,"count":756,"max":[1.62299693,4.33419,0.397274375],"min":[0.9979139,4.0051856,-0.3597084],"type":"VEC3","name":"accessorPositions"},{"bufferView":1,"byteOffset":374976,"componentType":5126,"count":756,"type":"VEC3","name":"accessorNormals"},{"bufferView":2,"byteOffset":121968,"componentType":5126,"count":756,"type":"VEC2","name":"accessorUVs"},{"bufferView":5,"componentType":5126,"count":43,"type":"MAT4","name":"accessorInverseBindMatrices"}],"bufferViews":[{"buffer":0,"byteLength":32004,"name":"bufferViewScalar"},{"buffer":0,"byteOffset":32004,"byteLength":384048,"byteStride":12,"name":"bufferViewFloatVec3"},{"buffer":0,"byteOffset":416052,"byteLength":128016,"byteStride":8,"name":"bufferViewFloatVec2"},{"buffer":0,"byteOffset":544068,"byteLength":121968,"byteStride":8,"name":"bufferViewUnsignedShortVec4"},{"buffer":0,"byteOffset":666036,"byteLength":243936,"byteStride":16,"name":"bufferViewFloatVec4"},{"buffer":0,"byteOffset":909972,"byteLength":2752,"name":"bufferViewFloatMat4"}],"buffers":[{"uri":"jingcha.bin","byteLength":912724}],"materials":[{"pbrMetallicRoughness":{"baseColorTexture":{"index":0},"metallicFactor":0.0,"roughnessFactor":0.450053632},"name":"Material #25"},{"pbrMetallicRoughness":{"baseColorTexture":{"index":1},"metallicFactor":0.0,"roughnessFactor":0.450053632},"name":"Material #26"}],"textures":[{"sampler":0,"source":0,"name":"HD_jiangcha_dif.png"},{"sampler":0,"source":1,"name":"HD_jiangchamao_diff.png"}],"images":[{"uri":"./HD_jiangcha_dif.png"},{"uri":"./HD_jiangchamao_diff.png"}],"samplers":[{"magFilter":9729,"minFilter":9987}],"skins":[{"inverseBindMatrices":10,"skeleton":4,"joints":[4,5,6,7,8,9,10,12,13,14,15,16,17,19,20,22,23,25,26,28,29,31,32,33,34,35,36,38,39,41,42,44,45,47,48,50,51,52,53,55,56,57,58],"name":"skeleton #0"}]}