{"asset":{"version":"2.0","generator":"babylon.js glTF exporter for 3dsmax 2018 v20210201.13"},"scene":0,"scenes":[{"nodes":[0]}],"nodes":[{"mesh":0,"name":"yidongweishengjian"}],"meshes":[{"primitives":[{"attributes":{"POSITION":1,"NORMAL":2,"TEXCOORD_0":3},"indices":0,"material":0}],"name":"yidongweishengjian"}],"accessors":[{"bufferView":0,"componentType":5125,"count":426591,"type":"SCALAR","name":"accessorIndices"},{"bufferView":1,"componentType":5126,"count":426591,"max":[1.66047847,4.504986,5.25176573],"min":[-1.66047847,-2.13623048E-06,-5.25176525],"type":"VEC3","name":"accessorPositions"},{"bufferView":1,"byteOffset":5119092,"componentType":5126,"count":426591,"type":"VEC3","name":"accessorNormals"},{"bufferView":2,"componentType":5126,"count":426591,"type":"VEC2","name":"accessorUVs"}],"bufferViews":[{"buffer":0,"byteLength":1706364,"name":"bufferViewScalar"},{"buffer":0,"byteOffset":1706364,"byteLength":10238184,"byteStride":12,"name":"bufferViewFloatVec3"},{"buffer":0,"byteOffset":11944548,"byteLength":3412728,"byteStride":8,"name":"bufferViewFloatVec2"}],"buffers":[{"uri":"yidongceshuo.bin","byteLength":15357276}],"materials":[{"pbrMetallicRoughness":{"baseColorTexture":{"index":0},"metallicFactor":0.0,"roughnessFactor":0.450053632},"name":"Material #456"}],"textures":[{"sampler":0,"source":0,"name":"HD_yidongceshuo_diff.png"}],"images":[{"uri":"./HD_yidongceshuo_diff.png"}],"samplers":[{"magFilter":9729,"minFilter":9987}]}