{"asset":{"version":"2.0","generator":"babylon.js glTF exporter for 3dsmax 2018 v20210201.13"},"scene":0,"scenes":[{"nodes":[0]}],"nodes":[{"children":[1,2],"mesh":0,"rotation":[0.7071068,0.0,0.0,0.7071067],"name":"gongjiaoche"},{"mesh":1,"translation":[1.88677824,-0.737051547,-0.272710562],"name":"圆柱_2"},{"mesh":2,"translation":[-1.784438,-0.737051547,-0.272710562],"name":"圆柱_1"}],"meshes":[{"primitives":[{"attributes":{"POSITION":1,"NORMAL":2,"TEXCOORD_0":3},"indices":0,"material":0}],"name":"gongjiaoche"},{"primitives":[{"attributes":{"POSITION":5,"NORMAL":6,"TEXCOORD_0":7},"indices":4,"material":0}],"name":"圆柱_2"},{"primitives":[{"attributes":{"POSITION":9,"NORMAL":10,"TEXCOORD_0":11},"indices":8,"material":0}],"name":"圆柱_1"}],"accessors":[{"bufferView":0,"componentType":5123,"count":1428,"type":"SCALAR","name":"accessorIndices"},{"bufferView":1,"componentType":5126,"count":1428,"max":[3.633933,0.8462537,-1.52587887E-07],"min":[-3.67571425,-0.7985712,-2.17439032],"type":"VEC3","name":"accessorPositions"},{"bufferView":1,"byteOffset":17136,"componentType":5126,"count":1428,"type":"VEC3","name":"accessorNormals"},{"bufferView":2,"componentType":5126,"count":1428,"type":"VEC2","name":"accessorUVs"},{"bufferView":0,"byteOffset":2856,"componentType":5123,"count":240,"type":"SCALAR","name":"accessorIndices"},{"bufferView":1,"byteOffset":34272,"componentType":5126,"count":240,"max":[0.272710532,0.0828096643,0.272710532],"min":[-0.272710532,-0.0828096643,-0.272710532],"type":"VEC3","name":"accessorPositions"},{"bufferView":1,"byteOffset":37152,"componentType":5126,"count":240,"type":"VEC3","name":"accessorNormals"},{"bufferView":2,"byteOffset":11424,"componentType":5126,"count":240,"type":"VEC2","name":"accessorUVs"},{"bufferView":0,"byteOffset":3336,"componentType":5123,"count":240,"type":"SCALAR","name":"accessorIndices"},{"bufferView":1,"byteOffset":40032,"componentType":5126,"count":240,"max":[0.272710532,0.0828096643,0.272710532],"min":[-0.272710532,-0.0828096643,-0.272710532],"type":"VEC3","name":"accessorPositions"},{"bufferView":1,"byteOffset":42912,"componentType":5126,"count":240,"type":"VEC3","name":"accessorNormals"},{"bufferView":2,"byteOffset":13344,"componentType":5126,"count":240,"type":"VEC2","name":"accessorUVs"}],"bufferViews":[{"buffer":0,"byteLength":3816,"name":"bufferViewScalar"},{"buffer":0,"byteOffset":3816,"byteLength":45792,"byteStride":12,"name":"bufferViewFloatVec3"},{"buffer":0,"byteOffset":49608,"byteLength":15264,"byteStride":8,"name":"bufferViewFloatVec2"}],"buffers":[{"uri":"gongjiaoche.bin","byteLength":64872}],"materials":[{"pbrMetallicRoughness":{"baseColorTexture":{"index":0},"metallicFactor":0.0,"roughnessFactor":0.450053632},"name":"01 - Default"}],"textures":[{"sampler":0,"source":0,"name":"HD_gongjiaoche_diff.png"}],"images":[{"uri":"./HD_gongjiaoche_diff.png"}],"samplers":[{"magFilter":9729,"minFilter":9987}]}