{"asset":{"version":"2.0","generator":"babylon.js glTF exporter for 3dsmax 2018 v20210201.13"},"scene":0,"scenes":[{"nodes":[0,1]}],"nodes":[{"mesh":0,"translation":[-1.14937663,32.82063,11.8411722],"name":"Box001"},{"mesh":1,"translation":[-19.4813786,62.9554863,11.7446289],"name":"Object001"}],"meshes":[{"primitives":[{"attributes":{"POSITION":1,"NORMAL":2,"TEXCOORD_0":3},"indices":0,"material":0}],"name":"Box001"},{"primitives":[{"attributes":{"POSITION":5,"NORMAL":6,"COLOR_0":7,"TEXCOORD_0":8},"indices":4,"material":1}],"name":"Object001"}],"accessors":[{"bufferView":0,"componentType":5123,"count":2010,"type":"SCALAR","name":"accessorIndices"},{"bufferView":1,"componentType":5126,"count":2010,"max":[67.0217056,28.2755547,28.322422],"min":[-70.4158,-33.0808563,-28.2424164],"type":"VEC3","name":"accessorPositions"},{"bufferView":1,"byteOffset":24120,"componentType":5126,"count":2010,"type":"VEC3","name":"accessorNormals"},{"bufferView":2,"componentType":5126,"count":2010,"type":"VEC2","name":"accessorUVs"},{"bufferView":0,"byteOffset":4020,"componentType":5123,"count":1674,"type":"SCALAR","name":"accessorIndices"},{"bufferView":1,"byteOffset":48240,"componentType":5126,"count":1674,"max":[2.88554764,3.08171463,16.7040882],"min":[-2.885559,-3.08172226,-16.704092],"type":"VEC3","name":"accessorPositions"},{"bufferView":1,"byteOffset":68328,"componentType":5126,"count":1674,"type":"VEC3","name":"accessorNormals"},{"bufferView":3,"componentType":5126,"count":1674,"type":"VEC4","name":"accessorColors"},{"bufferView":2,"byteOffset":16080,"componentType":5126,"count":1674,"type":"VEC2","name":"accessorUVs"}],"bufferViews":[{"buffer":0,"byteLength":7368,"name":"bufferViewScalar"},{"buffer":0,"byteOffset":7368,"byteLength":88416,"byteStride":12,"name":"bufferViewFloatVec3"},{"buffer":0,"byteOffset":95784,"byteLength":29472,"byteStride":8,"name":"bufferViewFloatVec2"},{"buffer":0,"byteOffset":125256,"byteLength":26784,"byteStride":16,"name":"bufferViewFloatVec4"}],"buffers":[{"uri":"yiweike.bin","byteLength":152040}],"materials":[{"pbrMetallicRoughness":{"baseColorTexture":{"index":0},"metallicFactor":0.0,"roughnessFactor":0.450053632},"name":"Material #29"},{"pbrMetallicRoughness":{"baseColorTexture":{"index":1},"metallicFactor":0.0,"roughnessFactor":0.450053632},"name":"01 - Default"}],"textures":[{"sampler":0,"source":0,"name":"HD_yiweike_diff.png"},{"sampler":0,"source":1,"name":"HD_jingche_diff.png"}],"images":[{"uri":"./HD_yiweike_diff.png"},{"uri":"./HD_jingche_diff.png"}],"samplers":[{"magFilter":9729,"minFilter":9987}]}