{"asset":{"version":"2.0","generator":"babylon.js glTF exporter for 3dsmax 2018 v20210201.13"},"scene":0,"scenes":[{"nodes":[0]}],"nodes":[{"children":[1,2],"translation":[-1.81898936E-14,0.0,4.54531857E-07],"rotation":[-7.525954E-08,0.382683456,3.11735242E-08,0.923879564],"scale":[0.05910462,0.0591046251,0.05910462],"name":"Group-654065-563"},{"mesh":0,"translation":[0.213241518,12.4576254,22.3802948],"rotation":[-1.69406589E-21,1.76352676E-24,-1.08244491E-17,1.0],"scale":[0.9999999,0.999999464,0.9999999],"name":"mate-jjkjnet215"},{"mesh":1,"translation":[1.74622979E-12,0.02605468,-1.12533746E-06],"rotation":[3.55609758E-15,-0.0436193757,-4.445124E-16,0.999048233],"scale":[0.9999999,0.999999464,0.9999999],"name":"mate-jjkjnet209"}],"meshes":[{"primitives":[{"attributes":{"POSITION":1,"NORMAL":2,"TEXCOORD_0":3},"indices":0,"material":0}],"name":"mate-jjkjnet215"},{"primitives":[{"attributes":{"POSITION":5,"NORMAL":6,"TEXCOORD_0":7,"TEXCOORD_1":8},"indices":4,"material":1}],"name":"mate-jjkjnet209"}],"accessors":[{"bufferView":0,"componentType":5123,"count":32280,"type":"SCALAR","name":"accessorIndices"},{"bufferView":1,"componentType":5126,"count":32280,"max":[0.199999988,8.0,0.199798614],"min":[-0.199194863,0.0,-0.89695555],"type":"VEC3","name":"accessorPositions"},{"bufferView":1,"byteOffset":387360,"componentType":5126,"count":32280,"type":"VEC3","name":"accessorNormals"},{"bufferView":2,"componentType":5126,"count":32280,"type":"VEC2","name":"accessorUVs"},{"bufferView":0,"byteOffset":64560,"componentType":5125,"count":341418,"type":"SCALAR","name":"accessorIndices"},{"bufferView":1,"byteOffset":774720,"componentType":5126,"count":341418,"max":[41.5815048,53.4899635,25.0],"min":[-25.0,-0.0110259056,-25.0],"type":"VEC3","name":"accessorPositions"},{"bufferView":1,"byteOffset":4871736,"componentType":5126,"count":341418,"type":"VEC3","name":"accessorNormals"},{"bufferView":2,"byteOffset":258240,"componentType":5126,"count":341418,"type":"VEC2","name":"accessorUVs"},{"bufferView":2,"byteOffset":2989584,"componentType":5126,"count":341418,"type":"VEC2","name":"accessorUV2s"}],"bufferViews":[{"buffer":0,"byteLength":1430232,"name":"bufferViewScalar"},{"buffer":0,"byteOffset":1430232,"byteLength":8968752,"byteStride":12,"name":"bufferViewFloatVec3"},{"buffer":0,"byteOffset":10398984,"byteLength":5720928,"byteStride":8,"name":"bufferViewFloatVec2"}],"buffers":[{"uri":"gangting.bin","byteLength":16119912}],"materials":[{"pbrMetallicRoughness":{"baseColorTexture":{"index":0},"metallicFactor":0.0,"roughnessFactor":0.242311656},"name":"Material #185"},{"pbrMetallicRoughness":{"baseColorTexture":{"index":0},"metallicFactor":0.0,"roughnessFactor":0.450053632},"name":"Material #25"}],"textures":[{"sampler":0,"source":0,"name":"HD_gangting_diff.png"}],"images":[{"uri":"./HD_gangting_diff.png"}],"samplers":[{"magFilter":9729,"minFilter":9987}]}