{"asset":{"version":"2.0","generator":"babylon.js glTF exporter for 3dsmax 2018 v20210201.13"},"scene":0,"scenes":[{"nodes":[0,1]}],"nodes":[{"mesh":0,"rotation":[0.7071068,0.0,0.0,0.7071067],"scale":[0.01,0.01,0.01],"name":"youxie1","extras":{"currentUVSet":"map1"}},{"children":[2,3],"rotation":[0.7071068,0.0,0.0,0.7071067],"scale":[0.01,0.01,0.01],"name":"XiaoFangBing"},{"rotation":[1.77635684E-15,0.0,0.0,1.0],"name":"youxie"},{"translation":[-0.12318784,1.49630189,-166.5911],"rotation":[1.77635684E-15,0.0,0.0,1.0],"name":"toufa"}],"meshes":[{"primitives":[{"attributes":{"POSITION":1,"NORMAL":2,"TEXCOORD_0":3},"indices":0,"material":0},{"attributes":{"POSITION":5,"NORMAL":6,"TEXCOORD_0":7},"indices":4,"material":1},{"attributes":{"POSITION":9,"NORMAL":10,"TEXCOORD_0":11},"indices":8,"material":2},{"attributes":{"POSITION":13,"NORMAL":14,"TEXCOORD_0":15},"indices":12,"material":3},{"attributes":{"POSITION":17,"NORMAL":18,"TEXCOORD_0":19},"indices":16,"material":4},{"attributes":{"POSITION":21,"NORMAL":22,"TEXCOORD_0":23},"indices":20,"material":5},{"attributes":{"POSITION":25,"NORMAL":26,"TEXCOORD_0":27},"indices":24,"material":6},{"attributes":{"POSITION":29,"NORMAL":30,"TEXCOORD_0":31},"indices":28,"material":7}],"name":"youxie1"}],"accessors":[{"bufferView":0,"componentType":5125,"count":41280,"type":"SCALAR","name":"accessorIndices"},{"bufferView":1,"componentType":5126,"count":41280,"max":[22.4729347,16.5968437,0.126626968],"min":[-22.4729347,-14.6186562,-38.1188049],"type":"VEC3","name":"accessorPositions"},{"bufferView":1,"byteOffset":495360,"componentType":5126,"count":41280,"type":"VEC3","name":"accessorNormals"},{"bufferView":2,"componentType":5126,"count":41280,"type":"VEC2","name":"accessorUVs"},{"bufferView":0,"byteOffset":165120,"componentType":5125,"count":359016,"type":"SCALAR","name":"accessorIndices"},{"bufferView":1,"byteOffset":990720,"componentType":5126,"count":359016,"max":[34.3945923,16.4847088,-34.7711754],"min":[-34.3069229,-16.6862545,-154.577271],"type":"VEC3","name":"accessorPositions"},{"bufferView":1,"byteOffset":5298912,"componentType":5126,"count":359016,"type":"VEC3","name":"accessorNormals"},{"bufferView":2,"byteOffset":330240,"componentType":5126,"count":359016,"type":"VEC2","name":"accessorUVs"},{"bufferView":0,"byteOffset":1601184,"componentType":5125,"count":21762,"type":"SCALAR","name":"accessorIndices"},{"bufferView":1,"byteOffset":9607104,"componentType":5126,"count":21762,"max":[8.839666,13.7723007,-148.0199],"min":[-8.839666,-7.40055847,-176.334137],"type":"VEC3","name":"accessorPositions"},{"bufferView":1,"byteOffset":9868248,"componentType":5126,"count":21762,"type":"VEC3","name":"accessorNormals"},{"bufferView":2,"byteOffset":3202368,"componentType":5126,"count":21762,"type":"VEC2","name":"accessorUVs"},{"bufferView":0,"byteOffset":1688232,"componentType":5125,"count":77088,"type":"SCALAR","name":"accessorIndices"},{"bufferView":1,"byteOffset":10129392,"componentType":5126,"count":77088,"max":[2.66095066,10.0221672,-153.96077],"min":[-7.30611134,6.137662,-163.136322],"type":"VEC3","name":"accessorPositions"},{"bufferView":1,"byteOffset":11054448,"componentType":5126,"count":77088,"type":"VEC3","name":"accessorNormals"},{"bufferView":2,"byteOffset":3376464,"componentType":5126,"count":77088,"type":"VEC2","name":"accessorUVs"},{"bufferView":0,"byteOffset":1996584,"componentType":5125,"count":52032,"type":"SCALAR","name":"accessorIndices"},{"bufferView":1,"byteOffset":11979504,"componentType":5126,"count":52032,"max":[10.7854195,16.6704044,-154.221619],"min":[-10.8198767,-10.4202719,-180.193863],"type":"VEC3","name":"accessorPositions"},{"bufferView":1,"byteOffset":12603888,"componentType":5126,"count":52032,"type":"VEC3","name":"accessorNormals"},{"bufferView":2,"byteOffset":3993168,"componentType":5126,"count":52032,"type":"VEC2","name":"accessorUVs"},{"bufferView":0,"byteOffset":2204712,"componentType":5125,"count":462288,"type":"SCALAR","name":"accessorIndices"},{"bufferView":1,"byteOffset":13228272,"componentType":5126,"count":462288,"max":[28.9056549,13.9508152,-74.90053],"min":[-28.08728,-3.87250018,-102.629166],"type":"VEC3","name":"accessorPositions"},{"bufferView":1,"byteOffset":18775728,"componentType":5126,"count":462288,"type":"VEC3","name":"accessorNormals"},{"bufferView":2,"byteOffset":4409424,"componentType":5126,"count":462288,"type":"VEC2","name":"accessorUVs"},{"bufferView":0,"byteOffset":4053864,"componentType":5125,"count":8208,"type":"SCALAR","name":"accessorIndices"},{"bufferView":1,"byteOffset":24323184,"componentType":5126,"count":8208,"max":[0.984689236,16.4835777,-107.95079],"min":[-4.25444031,15.1713066,-115.5139],"type":"VEC3","name":"accessorPositions"},{"bufferView":1,"byteOffset":24421680,"componentType":5126,"count":8208,"type":"VEC3","name":"accessorNormals"},{"bufferView":2,"byteOffset":8107728,"componentType":5126,"count":8208,"type":"VEC2","name":"accessorUVs"},{"bufferView":0,"byteOffset":4086696,"componentType":5125,"count":41280,"type":"SCALAR","name":"accessorIndices"},{"bufferView":1,"byteOffset":24520176,"componentType":5126,"count":41280,"max":[4.61450338,10.3424864,-163.723785],"min":[-4.614503,8.261139,-167.23291],"type":"VEC3","name":"accessorPositions"},{"bufferView":1,"byteOffset":25015536,"componentType":5126,"count":41280,"type":"VEC3","name":"accessorNormals"},{"bufferView":2,"byteOffset":8173392,"componentType":5126,"count":41280,"type":"VEC2","name":"accessorUVs"}],"bufferViews":[{"buffer":0,"byteLength":4251816,"name":"bufferViewScalar"},{"buffer":0,"byteOffset":4251816,"byteLength":25510896,"byteStride":12,"name":"bufferViewFloatVec3"},{"buffer":0,"byteOffset":29762712,"byteLength":8503632,"byteStride":8,"name":"bufferViewFloatVec2"}],"buffers":[{"uri":"xiaofangyuan.bin","byteLength":38266344}],"materials":[{"pbrMetallicRoughness":{"baseColorTexture":{"index":0},"metallicFactor":0.0,"roughnessFactor":0.29965356},"name":"XFB_xiezi"},{"pbrMetallicRoughness":{"baseColorTexture":{"index":1},"metallicFactor":0.0,"roughnessFactor":0.7022211},"name":"XFB_yifu"},{"pbrMetallicRoughness":{"baseColorTexture":{"index":2},"metallicFactor":0.0,"roughnessFactor":0.303269565},"name":"XFB_face"},{"pbrMetallicRoughness":{"baseColorFactor":[0.0136720836,0.0136720836,0.0136720836,1.0],"metallicFactor":0.0,"roughnessFactor":0.399997681},"name":"blinn1"},{"pbrMetallicRoughness":{"baseColorTexture":{"index":3},"metallicFactor":0.0,"roughnessFactor":0.346610636},"name":"XFB_mazi"},{"pbrMetallicRoughness":{"baseColorTexture":{"index":4},"metallicFactor":0.0,"roughnessFactor":0.3746602},"name":"XFB_body"},{"pbrMetallicRoughness":{"baseColorFactor":[0.464960724,0.464960724,0.464960724,1.0],"metallicFactor":0.0,"roughnessFactor":0.2581639},"name":"phong1"},{"pbrMetallicRoughness":{"baseColorTexture":{"index":5},"metallicFactor":0.0,"roughnessFactor":0.7022211},"name":"XFB_eye"}],"textures":[{"sampler":0,"source":0,"name":"XFB_xiezi_co.jpg"},{"sampler":0,"source":1,"name":"XFB_yifu_co.jpg"},{"sampler":0,"source":2,"name":"XFB_face_co.jpg"},{"sampler":0,"source":3,"name":"XFB_maozi_co.jpg"},{"sampler":0,"source":4,"name":"XFB_body_co.jpg"},{"sampler":0,"source":5,"name":"eye_co.jpg"}],"images":[{"uri":"./XFB_xiezi_co.jpg"},{"uri":"./XFB_yifu_co.jpg"},{"uri":"./XFB_face_co.jpg"},{"uri":"./XFB_maozi_co.jpg"},{"uri":"./XFB_body_co.jpg"},{"uri":"./eye_co.jpg"}],"samplers":[{"magFilter":9729,"minFilter":9987}]}