{"asset":{"version":"2.0","generator":"babylon.js glTF exporter for 3dsmax 2018 v20210201.13"},"scene":0,"scenes":[{"nodes":[0,1,2]}],"nodes":[{"mesh":0,"name":"12body"},{"mesh":1,"name":"Object001"},{"translation":[-1.98607492,0.9263864,2.59445643],"rotation":[-4.50002559E-15,-1.0,-5.96046448E-08,7.54979E-08],"scale":[0.0971793756,0.0971793756,0.0971793756],"name":"警车"}],"meshes":[{"primitives":[{"attributes":{"POSITION":1,"NORMAL":2,"COLOR_0":3,"TEXCOORD_0":4},"indices":0,"material":0},{"attributes":{"POSITION":6,"NORMAL":7,"COLOR_0":8,"TEXCOORD_0":9},"indices":5,"material":1}],"name":"12body"},{"primitives":[{"attributes":{"POSITION":11,"NORMAL":12,"COLOR_0":13,"TEXCOORD_0":14},"indices":10,"material":0}],"name":"Object001"}],"accessors":[{"bufferView":0,"componentType":5123,"count":5631,"type":"SCALAR","name":"accessorIndices"},{"bufferView":1,"componentType":5126,"count":5631,"max":[2.20606613,1.53809714,1.0521245],"min":[-2.30801916,0.00468784338,-1.0521245],"type":"VEC3","name":"accessorPositions"},{"bufferView":1,"byteOffset":67572,"componentType":5126,"count":5631,"type":"VEC3","name":"accessorNormals"},{"bufferView":2,"componentType":5126,"count":5631,"type":"VEC4","name":"accessorColors"},{"bufferView":3,"componentType":5126,"count":5631,"type":"VEC2","name":"accessorUVs"},{"bufferView":0,"byteOffset":11264,"componentType":5123,"count":687,"type":"SCALAR","name":"accessorIndices"},{"bufferView":1,"byteOffset":135144,"componentType":5126,"count":687,"max":[1.997175,1.4734633,-0.588663],"min":[-2.11078835,0.213816673,-0.890588462],"type":"VEC3","name":"accessorPositions"},{"bufferView":1,"byteOffset":143388,"componentType":5126,"count":687,"type":"VEC3","name":"accessorNormals"},{"bufferView":2,"byteOffset":90096,"componentType":5126,"count":687,"type":"VEC4","name":"accessorColors"},{"bufferView":3,"byteOffset":45048,"componentType":5126,"count":687,"type":"VEC2","name":"accessorUVs"},{"bufferView":0,"byteOffset":12640,"componentType":5123,"count":1674,"type":"SCALAR","name":"accessorIndices"},{"bufferView":1,"byteOffset":151632,"componentType":5126,"count":1674,"max":[0.198686063,1.67783535,0.5394577],"min":[0.0111445617,1.47754419,-0.5461965],"type":"VEC3","name":"accessorPositions"},{"bufferView":1,"byteOffset":171720,"componentType":5126,"count":1674,"type":"VEC3","name":"accessorNormals"},{"bufferView":2,"byteOffset":101088,"componentType":5126,"count":1674,"type":"VEC4","name":"accessorColors"},{"bufferView":3,"byteOffset":50544,"componentType":5126,"count":1674,"type":"VEC2","name":"accessorUVs"}],"bufferViews":[{"buffer":0,"byteLength":15988,"name":"bufferViewScalar"},{"buffer":0,"byteOffset":15988,"byteLength":191808,"byteStride":12,"name":"bufferViewFloatVec3"},{"buffer":0,"byteOffset":207796,"byteLength":127872,"byteStride":16,"name":"bufferViewFloatVec4"},{"buffer":0,"byteOffset":335668,"byteLength":63936,"byteStride":8,"name":"bufferViewFloatVec2"}],"buffers":[{"uri":"jingche.bin","byteLength":399604}],"materials":[{"pbrMetallicRoughness":{"baseColorTexture":{"index":0},"metallicFactor":0.0,"roughnessFactor":0.450053632},"name":"01 - Default"},{"pbrMetallicRoughness":{"baseColorTexture":{"index":1},"metallicFactor":0.0,"roughnessFactor":0.450053632},"name":"02 - Default"}],"textures":[{"sampler":0,"source":0,"name":"HD_jingche_diff.png"},{"sampler":0,"source":1,"name":"HD_jingche_diff - 1.png"}],"images":[{"uri":"./HD_jingche_diff.png"},{"uri":"./HD_jingche_diff - 1.png"}],"samplers":[{"magFilter":9729,"minFilter":9987}]}