{"asset":{"version":"2.0","generator":"babylon.js glTF exporter for 3dsmax 2018 v20210201.13"},"scene":0,"scenes":[{"nodes":[0]}],"nodes":[{"children":[1,2,3],"translation":[3.81469727E-06,0.0,0.0],"name":"fanzhiche"},{"mesh":0,"translation":[-9.301876,60.2935143,13.1473846],"name":"Cylinder001"},{"mesh":1,"translation":[-16.6349545,62.9554863,-0.136545181],"name":"Object001"},{"mesh":2,"translation":[1.69704747,32.82063,-0.0400028229],"name":"Box001"}],"meshes":[{"primitives":[{"attributes":{"POSITION":1,"NORMAL":2,"COLOR_0":3,"TEXCOORD_0":4},"indices":0,"material":0}],"name":"Cylinder001"},{"primitives":[{"attributes":{"POSITION":6,"NORMAL":7,"COLOR_0":8,"TEXCOORD_0":9},"indices":5,"material":1}],"name":"Object001"},{"primitives":[{"attributes":{"POSITION":11,"NORMAL":12,"TEXCOORD_0":13},"indices":10,"material":2}],"name":"Box001"}],"accessors":[{"bufferView":0,"componentType":5123,"count":7152,"type":"SCALAR","name":"accessorIndices"},{"bufferView":1,"componentType":5126,"count":7152,"max":[75.51287,12.27591,3.64648724],"min":[-4.851473,-0.1519332,-31.4637947],"type":"VEC3","name":"accessorPositions"},{"bufferView":1,"byteOffset":85824,"componentType":5126,"count":7152,"type":"VEC3","name":"accessorNormals"},{"bufferView":2,"componentType":5126,"count":7152,"type":"VEC4","name":"accessorColors"},{"bufferView":3,"componentType":5126,"count":7152,"type":"VEC2","name":"accessorUVs"},{"bufferView":0,"byteOffset":14304,"componentType":5123,"count":1674,"type":"SCALAR","name":"accessorIndices"},{"bufferView":1,"byteOffset":171648,"componentType":5126,"count":1674,"max":[2.88554764,3.08171463,16.7040882],"min":[-2.885559,-3.08172226,-16.704092],"type":"VEC3","name":"accessorPositions"},{"bufferView":1,"byteOffset":191736,"componentType":5126,"count":1674,"type":"VEC3","name":"accessorNormals"},{"bufferView":2,"byteOffset":114432,"componentType":5126,"count":1674,"type":"VEC4","name":"accessorColors"},{"bufferView":3,"byteOffset":57216,"componentType":5126,"count":1674,"type":"VEC2","name":"accessorUVs"},{"bufferView":0,"byteOffset":17652,"componentType":5123,"count":2010,"type":"SCALAR","name":"accessorIndices"},{"bufferView":1,"byteOffset":211824,"componentType":5126,"count":2010,"max":[67.0217056,28.2755547,28.322422],"min":[-70.4158,-33.0808563,-28.2424164],"type":"VEC3","name":"accessorPositions"},{"bufferView":1,"byteOffset":235944,"componentType":5126,"count":2010,"type":"VEC3","name":"accessorNormals"},{"bufferView":3,"byteOffset":70608,"componentType":5126,"count":2010,"type":"VEC2","name":"accessorUVs"}],"bufferViews":[{"buffer":0,"byteLength":21672,"name":"bufferViewScalar"},{"buffer":0,"byteOffset":21672,"byteLength":260064,"byteStride":12,"name":"bufferViewFloatVec3"},{"buffer":0,"byteOffset":281736,"byteLength":141216,"byteStride":16,"name":"bufferViewFloatVec4"},{"buffer":0,"byteOffset":422952,"byteLength":86688,"byteStride":8,"name":"bufferViewFloatVec2"}],"buffers":[{"uri":"wurenjifanzhiche.bin","byteLength":509640}],"materials":[{"pbrMetallicRoughness":{"baseColorTexture":{"index":0},"metallicFactor":0.0,"roughnessFactor":0.450053632},"name":"Material #32"},{"pbrMetallicRoughness":{"baseColorTexture":{"index":1},"metallicFactor":0.0,"roughnessFactor":0.450053632},"name":"01 - Default"},{"pbrMetallicRoughness":{"baseColorTexture":{"index":2},"metallicFactor":0.0,"roughnessFactor":0.450053632},"name":"Material #30"}],"textures":[{"sampler":0,"source":0,"name":"HD_fanzhishebei_diff.png"},{"sampler":0,"source":1,"name":"HD_jingche_diff.png"},{"sampler":0,"source":2,"name":"HD_wurenjifanzhi_diff.png"}],"images":[{"uri":"./HD_fanzhishebei_diff.png"},{"uri":"./HD_jingche_diff.png"},{"uri":"./HD_wurenjifanzhi_diff.png"}],"samplers":[{"magFilter":9729,"minFilter":9987}]}