{"asset":{"version":"2.0","generator":"babylon.js glTF exporter for 3dsmax 2018 v20210201.13"},"scene":0,"scenes":[{"nodes":[0,1]}],"nodes":[{"skin":0,"mesh":0,"rotation":[-8.742278E-08,-8.742278E-08,-7.642742E-15,1.0],"name":"business02_m_highpoly"},{"children":[2],"translation":[0.0,0.8838932,0.0],"rotation":[0.0,-0.7071063,0.0,0.707107246],"name":"Bip01"},{"children":[3],"rotation":[-0.4999993,-0.5,0.5,0.5000007],"name":"Bip01 Pelvis"},{"children":[4,37,41],"translation":[0.130510256,2.61496E-07,0.02920709],"rotation":[-2.08047641E-06,0.000398159085,6.93676157E-07,0.99999994],"name":"Bip01 Spine"},{"children":[5],"translation":[0.153963923,-3.40037332E-10,0.0001225996],"rotation":[-2.84216552E-14,0.0,-5.551115E-17,1.0],"name":"Bip01 Spine1"},{"children":[6],"translation":[0.153964072,-3.40037332E-10,0.000122597208],"rotation":[-2.84216552E-14,0.0,-5.551115E-17,1.0],"name":"Bip01 Spine2"},{"children":[7,9,23],"translation":[0.153963923,-2.27496452E-10,8.202076E-05],"rotation":[-2.84216552E-14,0.0,-5.551115E-17,1.0],"name":"Bip01 Neck"},{"children":[8],"translation":[0.103006132,4.54747341E-15,0.0],"rotation":[8.29277646E-14,0.050334692,1.3961025E-07,0.998732448],"name":"Bip01 Head"},{"mesh":1,"translation":[0.198523551,0.00189056387,-0.00651258463],"rotation":[-0.706196249,-0.706196249,-0.03587275,-0.0358736478],"scale":[0.462263763,0.462263852,0.462263852],"name":"对象003"},{"children":[10],"translation":[-0.008128509,0.0391653068,0.00588612771],"rotation":[-0.668494761,-0.7437167,-0.0002672003,-0.000295188831],"name":"Bip01 L Clavicle"},{"children":[11],"translation":[0.14539741,0.0,0.0],"rotation":[0.0371214263,0.045948226,-0.6216025,0.781102538],"scale":[0.99999994,0.99999994,1.0],"name":"Bip01 L UpperArm"},{"children":[12],"translation":[0.280821234,0.0,0.0],"rotation":[9.375912E-10,-0.115441933,7.500729E-09,0.9933142],"scale":[1.0,1.00000012,0.99999994],"name":"Bip01 L Forearm"},{"children":[13,15,17,19,21],"translation":[0.2834977,0.0,0.0],"rotation":[-0.706133962,0.0312761,0.024995802,0.7069455],"name":"Bip01 L Hand"},{"children":[14],"translation":[0.0304125212,-0.0426789,-0.0185436625],"rotation":[0.599344254,-0.02953774,-0.289738,0.745631158],"scale":[0.9999999,0.9999999,1.00000024],"name":"Bip01 L Finger0"},{"translation":[0.0547335036,-1.90734859E-08,0.0],"rotation":[-7.01180536E-09,0.238014892,7.67103447E-09,0.9712615],"scale":[1.0,0.99999994,1.0],"name":"Bip01 L Finger01"},{"children":[16],"translation":[0.0942773446,-0.0330408,-0.001219635],"rotation":[-0.00688715,0.157458916,-0.0605496764,0.9856434],"scale":[0.99999994,0.9999997,1.00000024],"name":"Bip01 L Finger1"},{"translation":[0.0485971831,9.536743E-09,0.0],"rotation":[1.44804735E-09,0.263218224,-5.79218851E-09,0.964736342],"scale":[1.00000012,1.00000012,1.0],"name":"Bip01 L Finger11"},{"children":[18],"translation":[0.09644531,-0.01115288,0.00363513944],"rotation":[-0.000392956077,0.160801023,-6.402151E-05,0.9869868],"scale":[0.99999994,0.9999999,1.0],"name":"Bip01 L Finger2"},{"translation":[0.0551844761,-2.38418574E-09,1.90734859E-08],"rotation":[9.754115E-10,0.297250241,4.877057E-10,0.954799652],"scale":[0.99999994,1.0,1.0],"name":"Bip01 L Finger21"},{"children":[20],"translation":[0.0971049443,0.0112972278,0.00558784464],"rotation":[0.006885776,0.160653934,0.044610858,0.9859781],"scale":[0.999999642,0.9999995,1.0],"name":"Bip01 L Finger3"},{"translation":[0.0483039841,0.0,0.0],"rotation":[4.90983365E-10,0.316999346,9.819667E-10,0.94842577],"name":"Bip01 L Finger31"},{"children":[22],"translation":[0.0963888541,0.0337440632,0.00343067152],"rotation":[0.008998745,0.160549358,0.0575778149,0.9853059],"scale":[0.9999994,0.9999995,1.0],"name":"Bip01 L Finger4"},{"translation":[0.03543564,-9.536743E-09,0.0],"rotation":[-9.750397E-10,0.2960781,-9.750395E-10,0.9551637],"scale":[1.0,1.00000012,1.0],"name":"Bip01 L Finger41"},{"children":[24],"translation":[-0.008128509,-0.0391653329,0.00588590838],"rotation":[0.668494761,-0.7437167,0.0002651375,-0.000297042978],"name":"Bip01 R Clavicle"},{"children":[25],"translation":[0.1453974,0.0,0.0],"rotation":[-0.0371193141,0.045946043,0.621603251,0.7811021],"name":"Bip01 R UpperArm"},{"children":[26],"translation":[0.2808213,0.0,0.0],"rotation":[2.34397585E-10,-0.115436479,5.6255427E-09,0.9933149],"scale":[0.99999994,1.00000012,1.0],"name":"Bip01 R Forearm"},{"children":[27,29,31,33,35],"translation":[0.2834977,0.0,4.76837148E-09],"rotation":[0.706133962,0.0312761,-0.024995802,0.7069455],"scale":[1.00000012,0.99999994,1.0],"name":"Bip01 R Hand"},{"children":[28],"translation":[0.0304124448,0.0426789,-0.0185437016],"rotation":[-0.5993443,-0.0295377281,0.289738,0.745631158],"scale":[0.99999994,0.9999999,1.00000024],"name":"Bip01 R Finger0"},{"translation":[0.0547335036,-1.90734859E-08,-3.81469718E-08],"rotation":[5.992996E-11,0.2380149,-7.67103447E-09,0.9712615],"scale":[1.0,0.99999994,1.0],"name":"Bip01 R Finger01"},{"children":[30],"translation":[0.09427726,0.0330408029,-0.00121967308],"rotation":[0.0068871486,0.157458872,0.0605496727,0.9856435],"scale":[1.0,0.999999762,1.00000012],"name":"Bip01 R Finger1"},{"translation":[0.0485971048,1.90734859E-08,-2.86102289E-08],"rotation":[-1.93073E-09,0.263218224,0.0,0.964736342],"scale":[1.0,1.0,0.99999994],"name":"Bip01 R Finger11"},{"children":[32],"translation":[0.09644523,0.0111528849,0.00363513944],"rotation":[0.000392955873,0.160801023,6.402056E-05,0.9869868],"scale":[0.99999994,0.99999994,1.0],"name":"Bip01 R Finger2"},{"translation":[0.0551844761,0.0,0.0],"rotation":[-6.09632234E-10,0.297250241,-4.87705765E-10,0.954799652],"scale":[1.0,1.00000012,1.0],"name":"Bip01 R Finger21"},{"children":[34],"translation":[0.09710487,-0.0112972325,0.00558784464],"rotation":[-0.00688577536,0.160653919,-0.044610858,0.9859781],"scale":[0.999999642,0.999999642,1.0],"name":"Bip01 R Finger3"},{"translation":[0.0483040623,0.0,0.0],"rotation":[-7.36475048E-10,0.316999376,-9.819666E-10,0.94842577],"scale":[1.00000012,1.00000012,1.0],"name":"Bip01 R Finger31"},{"children":[36],"translation":[0.09638878,-0.0337440632,0.00343067152],"rotation":[-0.008998746,0.160549343,-0.05757782,0.9853059],"scale":[0.999999464,0.9999995,1.0],"name":"Bip01 R Finger4"},{"translation":[0.0354357138,0.0,0.0],"rotation":[-1.95007921E-09,0.2960781,9.750396E-10,0.9551637],"scale":[1.00000012,1.00000012,1.00000012],"name":"Bip01 R Finger41"},{"children":[38],"translation":[-0.1304869,0.08520223,-0.0293108132],"rotation":[0.00298006181,-0.000589232135,0.999549448,0.02986169],"scale":[0.99999994,1.0,1.00000012],"name":"Bip01 L Thigh"},{"children":[39],"translation":[0.3897842,0.0,0.0],"rotation":[2.55243271E-10,-0.0676507,1.866922E-09,0.997709036],"scale":[1.00000012,1.0,1.0],"name":"Bip01 L Calf"},{"children":[40],"translation":[0.422138155,9.536743E-09,-4.76837148E-09],"rotation":[-0.059079878,0.06901401,0.0340885743,0.99528116],"scale":[1.0,0.99999994,1.0],"name":"Bip01 L Foot"},{"translation":[0.0776755959,9.536743E-09,-0.123889707],"rotation":[-8.277031E-17,0.707106769,8.277031E-17,0.707106769],"name":"Bip01 L Toe0"},{"children":[42],"translation":[-0.1304869,-0.08520214,-0.0293112844],"rotation":[0.00297797867,0.000586460053,0.999549448,-0.02986178],"scale":[1.00000012,1.00000012,1.0],"name":"Bip01 R Thigh"},{"children":[43],"translation":[0.389784127,9.536743E-09,0.0],"rotation":[2.917067E-11,-0.0676551,5.600768E-09,0.9977088],"scale":[1.0,0.99999994,1.0],"name":"Bip01 R Calf"},{"children":[44],"translation":[0.4221381,0.0,9.536743E-09],"rotation":[0.05907973,0.06901643,-0.0340888,0.9952809],"name":"Bip01 R Foot"},{"translation":[0.0776755959,9.536743E-09,-0.123889707],"rotation":[8.2768506E-17,0.707106769,-8.2768506E-17,0.707106769],"name":"Bip01 R Toe0"}],"meshes":[{"primitives":[{"attributes":{"POSITION":1,"NORMAL":2,"COLOR_0":3,"TEXCOORD_0":4,"JOINTS_0":5,"WEIGHTS_0":6},"indices":0,"material":0}],"name":"business02_m_highpoly"},{"primitives":[{"attributes":{"POSITION":8,"NORMAL":9,"TEXCOORD_0":10},"indices":7,"material":1}],"name":"对象003"}],"accessors":[{"bufferView":0,"componentType":5123,"count":15246,"type":"SCALAR","name":"accessorIndices"},{"bufferView":1,"componentType":5126,"count":15246,"max":[0.2994773,1.82576764,0.153778523],"min":[-0.29947722,-0.001984684,-0.152652934],"type":"VEC3","name":"accessorPositions"},{"bufferView":1,"byteOffset":182952,"componentType":5126,"count":15246,"type":"VEC3","name":"accessorNormals"},{"bufferView":2,"componentType":5126,"count":15246,"type":"VEC4","name":"accessorColors"},{"bufferView":3,"componentType":5126,"count":15246,"type":"VEC2","name":"accessorUVs"},{"bufferView":4,"componentType":5123,"count":15246,"type":"VEC4","name":"accessorJoints"},{"bufferView":2,"byteOffset":243936,"componentType":5126,"count":15246,"type":"VEC4","name":"accessorWeights"},{"bufferView":0,"byteOffset":30492,"componentType":5123,"count":756,"type":"SCALAR","name":"accessorIndices"},{"bufferView":1,"byteOffset":365904,"componentType":5126,"count":756,"max":[0.312541485,0.164501637,0.378491551],"min":[-0.3125418,-0.164502248,-0.378491521],"type":"VEC3","name":"accessorPositions"},{"bufferView":1,"byteOffset":374976,"componentType":5126,"count":756,"type":"VEC3","name":"accessorNormals"},{"bufferView":3,"byteOffset":121968,"componentType":5126,"count":756,"type":"VEC2","name":"accessorUVs"},{"bufferView":5,"componentType":5126,"count":43,"type":"MAT4","name":"accessorInverseBindMatrices"}],"bufferViews":[{"buffer":0,"byteLength":32004,"name":"bufferViewScalar"},{"buffer":0,"byteOffset":32004,"byteLength":384048,"byteStride":12,"name":"bufferViewFloatVec3"},{"buffer":0,"byteOffset":416052,"byteLength":487872,"byteStride":16,"name":"bufferViewFloatVec4"},{"buffer":0,"byteOffset":903924,"byteLength":128016,"byteStride":8,"name":"bufferViewFloatVec2"},{"buffer":0,"byteOffset":1031940,"byteLength":121968,"byteStride":8,"name":"bufferViewUnsignedShortVec4"},{"buffer":0,"byteOffset":1153908,"byteLength":2752,"name":"bufferViewFloatMat4"}],"buffers":[{"uri":"wujing.bin","byteLength":1156660}],"materials":[{"pbrMetallicRoughness":{"baseColorTexture":{"index":0},"metallicFactor":0.0,"roughnessFactor":0.450053632},"name":"01 - Default"},{"pbrMetallicRoughness":{"baseColorTexture":{"index":1},"metallicFactor":0.0,"roughnessFactor":0.450053632},"name":"Material #0"}],"textures":[{"sampler":0,"source":0,"name":"LUJUN.jpg"},{"sampler":0,"source":1,"name":"LUJUN1.jpg"}],"images":[{"uri":"./LUJUN.jpg"},{"uri":"./LUJUN1.jpg"}],"samplers":[{"magFilter":9729,"minFilter":9987}],"skins":[{"inverseBindMatrices":11,"skeleton":1,"joints":[1,2,3,4,5,6,7,9,10,11,12,13,14,15,16,17,18,19,20,21,22,23,24,25,26,27,28,29,30,31,32,33,34,35,36,37,38,39,40,41,42,43,44],"name":"skeleton #0"}]}