{"asset":{"version":"2.0","generator":"babylon.js glTF exporter for 3dsmax 2018 v20210201.13"},"scene":0,"scenes":[{"nodes":[0]}],"nodes":[{"children":[1,2,3,4,5,6,7,8,9,10,11,12,13,14,15],"name":"jingquan"},{"mesh":0,"translation":[-2.36946879E-10,0.557618558,-0.2088846],"name":"OPT_ago_d_0"},{"mesh":1,"translation":[-2.36946879E-10,0.557618558,-0.2088846],"name":"OPT_ago_d_1"},{"mesh":2,"translation":[-2.36946879E-10,0.557618558,-0.2088846],"name":"OPT_ago_u_0"},{"mesh":3,"translation":[-2.36946879E-10,0.557618558,-0.2088846],"name":"OPT_ago_u_1"},{"mesh":4,"translation":[-2.36946879E-10,0.557618558,-0.2088846],"name":"OPTeyel_0"},{"mesh":5,"translation":[-2.36946879E-10,0.557618558,-0.2088846],"name":"OPTeyer_0"},{"mesh":6,"translation":[-2.36946879E-10,0.557618558,-0.2088846],"name":"WGT_body_3"},{"mesh":7,"translation":[-2.36946879E-10,0.557618558,-0.2088846],"name":"WGT_blood_1"},{"mesh":8,"translation":[-2.36946879E-10,0.557618558,-0.2088846],"name":"WGT_blood_2"},{"mesh":9,"translation":[-2.36946879E-10,0.557618558,-0.2088846],"name":"WGT_blood_0"},{"mesh":10,"translation":[-2.36946879E-10,0.557618558,-0.2088846],"name":"WGT_body_1"},{"mesh":11,"translation":[-2.36946879E-10,0.557618558,-0.2088846],"name":"WGT_body_2"},{"mesh":12,"translation":[-2.36946879E-10,0.557618558,-0.2088846],"name":"WGT_body_4"},{"mesh":13,"translation":[-2.36946879E-10,0.557618558,-0.2088846],"name":"WGT_body_5"},{"mesh":14,"translation":[-2.36946879E-10,0.557618558,-0.2088846],"name":"WGT_body_0"}],"meshes":[{"primitives":[{"attributes":{"POSITION":1,"NORMAL":2,"TEXCOORD_0":3},"indices":0,"material":0}],"name":"OPT_ago_d_0"},{"primitives":[{"attributes":{"POSITION":5,"NORMAL":6,"TEXCOORD_0":7},"indices":4,"material":1}],"name":"OPT_ago_d_1"},{"primitives":[{"attributes":{"POSITION":9,"NORMAL":10,"TEXCOORD_0":11},"indices":8,"material":2}],"name":"OPT_ago_u_0"},{"primitives":[{"attributes":{"POSITION":13,"NORMAL":14,"TEXCOORD_0":15},"indices":12,"material":3}],"name":"OPT_ago_u_1"},{"primitives":[{"attributes":{"POSITION":17,"NORMAL":18,"TEXCOORD_0":19},"indices":16,"material":4}],"name":"OPTeyel_0"},{"primitives":[{"attributes":{"POSITION":21,"NORMAL":22,"TEXCOORD_0":23},"indices":20,"material":4}],"name":"OPTeyer_0"},{"primitives":[{"attributes":{"POSITION":25,"NORMAL":26,"TEXCOORD_0":27},"indices":24,"material":5}],"name":"WGT_body_3"},{"primitives":[{"attributes":{"POSITION":29,"NORMAL":30,"TEXCOORD_0":31},"indices":28,"material":6}],"name":"WGT_blood_1"},{"primitives":[{"attributes":{"POSITION":33,"NORMAL":34,"TEXCOORD_0":35},"indices":32,"material":7}],"name":"WGT_blood_2"},{"primitives":[{"attributes":{"POSITION":37,"NORMAL":38,"TEXCOORD_0":39},"indices":36,"material":8}],"name":"WGT_blood_0"},{"primitives":[{"attributes":{"POSITION":41,"NORMAL":42,"TEXCOORD_0":43},"indices":40,"material":9}],"name":"WGT_body_1"},{"primitives":[{"attributes":{"POSITION":45,"NORMAL":46,"TEXCOORD_0":47},"indices":44,"material":10}],"name":"WGT_body_2"},{"primitives":[{"attributes":{"POSITION":49,"NORMAL":50,"TEXCOORD_0":51},"indices":48,"material":11}],"name":"WGT_body_4"},{"primitives":[{"attributes":{"POSITION":53,"NORMAL":54,"TEXCOORD_0":55},"indices":52,"material":12}],"name":"WGT_body_5"},{"primitives":[{"attributes":{"POSITION":57,"NORMAL":58,"TEXCOORD_0":59},"indices":56,"material":13}],"name":"WGT_body_0"}],"accessors":[{"bufferView":0,"componentType":5123,"count":2418,"type":"SCALAR","name":"accessorIndices"},{"bufferView":1,"componentType":5126,"count":2418,"max":[0.03327064,-0.03767009,0.8657952],"min":[-0.03327064,-0.09217025,0.769238651],"type":"VEC3","name":"accessorPositions"},{"bufferView":1,"byteOffset":29016,"componentType":5126,"count":2418,"type":"VEC3","name":"accessorNormals"},{"bufferView":2,"componentType":5126,"count":2418,"type":"VEC2","name":"accessorUVs"},{"bufferView":0,"byteOffset":4836,"componentType":5123,"count":1644,"type":"SCALAR","name":"accessorIndices"},{"bufferView":1,"byteOffset":58032,"componentType":5126,"count":1644,"max":[0.03958161,-0.00196009548,0.8643389],"min":[-0.03958161,-0.102791183,0.7395625],"type":"VEC3","name":"accessorPositions"},{"bufferView":1,"byteOffset":77760,"componentType":5126,"count":1644,"type":"VEC3","name":"accessorNormals"},{"bufferView":2,"byteOffset":19344,"componentType":5126,"count":1644,"type":"VEC2","name":"accessorUVs"},{"bufferView":0,"byteOffset":8124,"componentType":5123,"count":2421,"type":"SCALAR","name":"accessorIndices"},{"bufferView":1,"byteOffset":97488,"componentType":5126,"count":2421,"max":[0.0385768227,-0.01763586,0.8854816],"min":[-0.0385768227,-0.0735293254,0.7714773],"type":"VEC3","name":"accessorPositions"},{"bufferView":1,"byteOffset":126540,"componentType":5126,"count":2421,"type":"VEC3","name":"accessorNormals"},{"bufferView":2,"byteOffset":32496,"componentType":5126,"count":2421,"type":"VEC2","name":"accessorUVs"},{"bufferView":0,"byteOffset":12968,"componentType":5123,"count":1107,"type":"SCALAR","name":"accessorIndices"},{"bufferView":1,"byteOffset":155592,"componentType":5126,"count":1107,"max":[0.0388984047,0.009312025,0.8915602],"min":[-0.0388984047,-0.0591316223,0.7083141],"type":"VEC3","name":"accessorPositions"},{"bufferView":1,"byteOffset":168876,"componentType":5126,"count":1107,"type":"VEC3","name":"accessorNormals"},{"bufferView":2,"byteOffset":51864,"componentType":5126,"count":1107,"type":"VEC2","name":"accessorUVs"},{"bufferView":0,"byteOffset":15184,"componentType":5123,"count":396,"type":"SCALAR","name":"accessorIndices"},{"bufferView":1,"byteOffset":182160,"componentType":5126,"count":396,"max":[0.0396949127,0.03563569,0.811592937],"min":[0.02205514,0.0181260742,0.8017686],"type":"VEC3","name":"accessorPositions"},{"bufferView":1,"byteOffset":186912,"componentType":5126,"count":396,"type":"VEC3","name":"accessorNormals"},{"bufferView":2,"byteOffset":60720,"componentType":5126,"count":396,"type":"VEC2","name":"accessorUVs"},{"bufferView":0,"byteOffset":15976,"componentType":5123,"count":396,"type":"SCALAR","name":"accessorIndices"},{"bufferView":1,"byteOffset":191664,"componentType":5126,"count":396,"max":[-0.02205514,0.03563569,0.811592937],"min":[-0.0396949127,0.0181260742,0.8017686],"type":"VEC3","name":"accessorPositions"},{"bufferView":1,"byteOffset":196416,"componentType":5126,"count":396,"type":"VEC3","name":"accessorNormals"},{"bufferView":2,"byteOffset":63888,"componentType":5126,"count":396,"type":"VEC2","name":"accessorUVs"},{"bufferView":0,"byteOffset":16768,"componentType":5123,"count":1440,"type":"SCALAR","name":"accessorIndices"},{"bufferView":1,"byteOffset":201168,"componentType":5126,"count":1440,"max":[0.117858782,-0.4920117,0.489626825],"min":[-0.117858782,-0.5582956,-0.0347094424],"type":"VEC3","name":"accessorPositions"},{"bufferView":1,"byteOffset":218448,"componentType":5126,"count":1440,"type":"VEC3","name":"accessorNormals"},{"bufferView":2,"byteOffset":67056,"componentType":5126,"count":1440,"type":"VEC2","name":"accessorUVs"},{"bufferView":0,"byteOffset":19648,"componentType":5123,"count":3,"type":"SCALAR","name":"accessorIndices"},{"bufferView":1,"byteOffset":235728,"componentType":5126,"count":3,"max":[0.000106517073,2.21305818E-05,5.993672E-05],"min":[-0.000106517073,-7.32201443E-06,-0.000181157069],"type":"VEC3","name":"accessorPositions"},{"bufferView":1,"byteOffset":235764,"componentType":5126,"count":3,"type":"VEC3","name":"accessorNormals"},{"bufferView":2,"byteOffset":78576,"componentType":5126,"count":3,"type":"VEC2","name":"accessorUVs"},{"bufferView":0,"byteOffset":19656,"componentType":5123,"count":3,"type":"SCALAR","name":"accessorIndices"},{"bufferView":1,"byteOffset":235800,"componentType":5126,"count":3,"max":[0.000243564529,5.10072869E-06,0.000162974],"min":[0.0,-1.99092974E-05,-4.175367E-05],"type":"VEC3","name":"accessorPositions"},{"bufferView":1,"byteOffset":235836,"componentType":5126,"count":3,"type":"VEC3","name":"accessorNormals"},{"bufferView":2,"byteOffset":78600,"componentType":5126,"count":3,"type":"VEC2","name":"accessorUVs"},{"bufferView":0,"byteOffset":19664,"componentType":5123,"count":3,"type":"SCALAR","name":"accessorIndices"},{"bufferView":1,"byteOffset":235872,"componentType":5126,"count":3,"max":[0.0,5.10072869E-06,0.000162974],"min":[-0.000243564529,-1.99092974E-05,-4.175367E-05],"type":"VEC3","name":"accessorPositions"},{"bufferView":1,"byteOffset":235908,"componentType":5126,"count":3,"type":"VEC3","name":"accessorNormals"},{"bufferView":2,"byteOffset":78624,"componentType":5126,"count":3,"type":"VEC2","name":"accessorUVs"},{"bufferView":0,"byteOffset":19672,"componentType":5123,"count":4614,"type":"SCALAR","name":"accessorIndices"},{"bufferView":1,"byteOffset":235944,"componentType":5126,"count":4614,"max":[0.135721073,0.142496437,0.5925508],"min":[-0.133798331,-0.21494253,0.112257004],"type":"VEC3","name":"accessorPositions"},{"bufferView":1,"byteOffset":291312,"componentType":5126,"count":4614,"type":"VEC3","name":"accessorNormals"},{"bufferView":2,"byteOffset":78648,"componentType":5126,"count":4614,"type":"VEC2","name":"accessorUVs"},{"bufferView":0,"byteOffset":28900,"componentType":5123,"count":264,"type":"SCALAR","name":"accessorIndices"},{"bufferView":1,"byteOffset":346680,"componentType":5126,"count":264,"max":[0.132799655,0.07597481,0.584429145],"min":[-0.110129163,-0.140730262,0.153682411],"type":"VEC3","name":"accessorPositions"},{"bufferView":1,"byteOffset":349848,"componentType":5126,"count":264,"type":"VEC3","name":"accessorNormals"},{"bufferView":2,"byteOffset":115560,"componentType":5126,"count":264,"type":"VEC2","name":"accessorUVs"},{"bufferView":0,"byteOffset":29428,"componentType":5123,"count":474,"type":"SCALAR","name":"accessorIndices"},{"bufferView":1,"byteOffset":353016,"componentType":5126,"count":474,"max":[0.121021725,0.104690216,0.55166477],"min":[-0.121021725,-0.212602973,0.149903357],"type":"VEC3","name":"accessorPositions"},{"bufferView":1,"byteOffset":358704,"componentType":5126,"count":474,"type":"VEC3","name":"accessorNormals"},{"bufferView":2,"byteOffset":117672,"componentType":5126,"count":474,"type":"VEC2","name":"accessorUVs"},{"bufferView":0,"byteOffset":30376,"componentType":5123,"count":4239,"type":"SCALAR","name":"accessorIndices"},{"bufferView":1,"byteOffset":364392,"componentType":5126,"count":4239,"max":[0.142120242,0.137926534,0.5830033],"min":[-0.142120242,-0.199638382,0.114857],"type":"VEC3","name":"accessorPositions"},{"bufferView":1,"byteOffset":415260,"componentType":5126,"count":4239,"type":"VEC3","name":"accessorNormals"},{"bufferView":2,"byteOffset":121464,"componentType":5126,"count":4239,"type":"VEC2","name":"accessorUVs"},{"bufferView":0,"byteOffset":38856,"componentType":5123,"count":18444,"type":"SCALAR","name":"accessorIndices"},{"bufferView":1,"byteOffset":466128,"componentType":5126,"count":18444,"max":[0.139147267,0.173974469,0.9100576],"min":[-0.139147267,-0.5570921,-0.492288381],"type":"VEC3","name":"accessorPositions"},{"bufferView":1,"byteOffset":687456,"componentType":5126,"count":18444,"type":"VEC3","name":"accessorNormals"},{"bufferView":2,"byteOffset":155376,"componentType":5126,"count":18444,"type":"VEC2","name":"accessorUVs"}],"bufferViews":[{"buffer":0,"byteLength":75744,"name":"bufferViewScalar"},{"buffer":0,"byteOffset":75744,"byteLength":908784,"byteStride":12,"name":"bufferViewFloatVec3"},{"buffer":0,"byteOffset":984528,"byteLength":302928,"byteStride":8,"name":"bufferViewFloatVec2"}],"buffers":[{"uri":"jingquan.bin","byteLength":1287456}],"materials":[{"pbrMetallicRoughness":{"baseColorTexture":{"index":0},"metallicFactor":0.0,"roughnessFactor":0.7022211},"name":"OPT_ago_d_0"},{"pbrMetallicRoughness":{"baseColorTexture":{"index":0},"metallicFactor":0.0,"roughnessFactor":0.7022211},"name":"OPT_ago_d_1"},{"pbrMetallicRoughness":{"baseColorTexture":{"index":0},"metallicFactor":0.0,"roughnessFactor":0.7022211},"name":"OPT_ago_u_0"},{"pbrMetallicRoughness":{"baseColorTexture":{"index":0},"metallicFactor":0.0,"roughnessFactor":0.7022211},"name":"OPT_ago_u_1"},{"pbrMetallicRoughness":{"baseColorTexture":{"index":1},"metallicFactor":0.0,"roughnessFactor":0.7022211},"name":"OPTeyel_0"},{"pbrMetallicRoughness":{"baseColorTexture":{"index":0},"metallicFactor":0.0,"roughnessFactor":0.7022211},"name":"WGT_body_3"},{"pbrMetallicRoughness":{"baseColorTexture":{"index":2},"metallicFactor":0.0,"roughnessFactor":0.7022211},"name":"WGT_blood_1"},{"pbrMetallicRoughness":{"baseColorTexture":{"index":3},"metallicFactor":0.0,"roughnessFactor":0.7022211},"name":"WGT_blood_2"},{"pbrMetallicRoughness":{"baseColorTexture":{"index":4},"metallicFactor":0.0,"roughnessFactor":0.7022211},"name":"WGT_blood_0"},{"pbrMetallicRoughness":{"baseColorTexture":{"index":5},"metallicFactor":0.0,"roughnessFactor":0.7022211},"name":"WGT_body_1"},{"pbrMetallicRoughness":{"baseColorTexture":{"index":5},"metallicFactor":0.0,"roughnessFactor":0.7022211},"name":"WGT_body_2"},{"pbrMetallicRoughness":{"baseColorTexture":{"index":5},"metallicFactor":0.0,"roughnessFactor":0.7022211},"name":"WGT_body_4"},{"pbrMetallicRoughness":{"baseColorTexture":{"index":6},"metallicFactor":0.0,"roughnessFactor":0.7022211},"name":"WGT_body_5"},{"pbrMetallicRoughness":{"baseColorTexture":{"index":7},"metallicFactor":0.0,"roughnessFactor":0.7022211},"name":"WGT_body_0"}],"textures":[{"sampler":0,"source":0,"name":"e_dog_a_mouth_base.png"},{"sampler":0,"source":1,"name":"e_dog_a_eye_base.png"},{"sampler":0,"source":2,"name":"0002_e_dog_a_blood.png"},{"sampler":0,"source":3,"name":"0003_e_dog_a_blood.png"},{"sampler":0,"source":4,"name":"0001_e_dog_a_blood.png"},{"sampler":0,"source":5,"name":"e_dog_a_jacket_base.png"},{"sampler":0,"source":6,"name":"e_dog_a_metal_base.png"},{"sampler":0,"source":7,"name":"e_dog_a_fur_base.png"}],"images":[{"uri":"./e_dog_a_mouth_base.png"},{"uri":"./e_dog_a_eye_base.png"},{"uri":"./0002_e_dog_a_blood.png"},{"uri":"./0003_e_dog_a_blood.png"},{"uri":"./0001_e_dog_a_blood.png"},{"uri":"./e_dog_a_jacket_base.png"},{"uri":"./e_dog_a_metal_base.png"},{"uri":"./e_dog_a_fur_base.png"}],"samplers":[{"magFilter":9729,"minFilter":9987}]}