{"asset":{"version":"2.0","generator":"babylon.js glTF exporter for 3dsmax 2018 v20210201.13"},"scene":0,"scenes":[{"nodes":[0]}],"nodes":[{"children":[1,2,3,4,5,6],"name":"Jiaojing"},{"mesh":0,"translation":[0.00148387172,0.8719383,0.028878469],"rotation":[-8.742278E-08,0.0,0.0,1.0],"name":"Object003"},{"mesh":1,"translation":[-0.0239636768,1.19671464,-0.140960887],"name":"Object001"},{"mesh":2,"translation":[0.00148387172,0.8719383,-0.0348363444],"name":"Object002"},{"mesh":3,"translation":[-0.024577694,1.27323282,0.008790235],"name":"qingmo_30b9d436-d50f-4cdc-a408-231b32ea2016"},{"mesh":4,"translation":[0.00148387172,0.8719383,-0.0348363444],"name":"qingmo_9486cffd-295d-45aa-8ce9-fa75947ab277"},{"mesh":5,"translation":[0.007990735,1.72675467,-0.00138526689],"name":"qingmo_026dc638-51b6-420e-b4b8-96c2ed3ee0f4"}],"meshes":[{"primitives":[{"attributes":{"POSITION":1,"NORMAL":2,"COLOR_0":3,"TEXCOORD_0":4},"indices":0,"material":0}],"name":"Object003"},{"primitives":[{"attributes":{"POSITION":6,"NORMAL":7,"COLOR_0":8,"TEXCOORD_0":9},"indices":5,"material":0}],"name":"Object001"},{"primitives":[{"attributes":{"POSITION":11,"NORMAL":12,"COLOR_0":13,"TEXCOORD_0":14},"indices":10,"material":0}],"name":"Object002"},{"primitives":[{"attributes":{"POSITION":16,"NORMAL":17,"COLOR_0":18,"TEXCOORD_0":19},"indices":15,"material":1}],"name":"qingmo_30b9d436-d50f-4cdc-a408-231b32ea2016"},{"primitives":[{"attributes":{"POSITION":21,"NORMAL":22,"COLOR_0":23,"TEXCOORD_0":24},"indices":20,"material":0}],"name":"qingmo_9486cffd-295d-45aa-8ce9-fa75947ab277"},{"primitives":[{"attributes":{"POSITION":26,"NORMAL":27,"COLOR_0":28,"TEXCOORD_0":29},"indices":25,"material":0}],"name":"qingmo_026dc638-51b6-420e-b4b8-96c2ed3ee0f4"}],"accessors":[{"bufferView":0,"componentType":5123,"count":840,"type":"SCALAR","name":"accessorIndices"},{"bufferView":1,"componentType":5126,"count":840,"max":[-0.03904497,0.101666331,0.2441294],"min":[-0.12777786,-0.116576076,0.188003346],"type":"VEC3","name":"accessorPositions"},{"bufferView":1,"byteOffset":10080,"componentType":5126,"count":840,"type":"VEC3","name":"accessorNormals"},{"bufferView":2,"componentType":5126,"count":840,"type":"VEC4","name":"accessorColors"},{"bufferView":3,"componentType":5126,"count":840,"type":"VEC2","name":"accessorUVs"},{"bufferView":0,"byteOffset":1680,"componentType":5123,"count":2190,"type":"SCALAR","name":"accessorIndices"},{"bufferView":1,"byteOffset":20160,"componentType":5126,"count":2190,"max":[0.145035028,0.3625421,0.43526274],"min":[-0.145036414,-0.36254257,-0.15334034],"type":"VEC3","name":"accessorPositions"},{"bufferView":1,"byteOffset":46440,"componentType":5126,"count":2190,"type":"VEC3","name":"accessorNormals"},{"bufferView":2,"byteOffset":13440,"componentType":5126,"count":2190,"type":"VEC4","name":"accessorColors"},{"bufferView":3,"byteOffset":6720,"componentType":5126,"count":2190,"type":"VEC2","name":"accessorUVs"},{"bufferView":0,"byteOffset":6060,"componentType":5123,"count":840,"type":"SCALAR","name":"accessorIndices"},{"bufferView":1,"byteOffset":72720,"componentType":5126,"count":840,"max":[-0.03904494,0.101666331,-0.188003346],"min":[-0.127777874,-0.116576076,-0.2441294],"type":"VEC3","name":"accessorPositions"},{"bufferView":1,"byteOffset":82800,"componentType":5126,"count":840,"type":"VEC3","name":"accessorNormals"},{"bufferView":2,"byteOffset":48480,"componentType":5126,"count":840,"type":"VEC4","name":"accessorColors"},{"bufferView":3,"byteOffset":24240,"componentType":5126,"count":840,"type":"VEC2","name":"accessorUVs"},{"bufferView":0,"byteOffset":7740,"componentType":5123,"count":18954,"type":"SCALAR","name":"accessorIndices"},{"bufferView":1,"byteOffset":92880,"componentType":5126,"count":18954,"max":[0.138841942,0.222132713,0.161989972],"min":[-0.138840348,-0.2221331,-0.167282641],"type":"VEC3","name":"accessorPositions"},{"bufferView":1,"byteOffset":320328,"componentType":5126,"count":18954,"type":"VEC3","name":"accessorNormals"},{"bufferView":2,"byteOffset":61920,"componentType":5126,"count":18954,"type":"VEC4","name":"accessorColors"},{"bufferView":3,"byteOffset":30960,"componentType":5126,"count":18954,"type":"VEC2","name":"accessorUVs"},{"bufferView":0,"byteOffset":45648,"componentType":5123,"count":7212,"type":"SCALAR","name":"accessorIndices"},{"bufferView":1,"byteOffset":547776,"componentType":5126,"count":7212,"max":[0.148466259,0.8880668,0.244129628],"min":[-0.148466721,-0.888066947,-0.217869863],"type":"VEC3","name":"accessorPositions"},{"bufferView":1,"byteOffset":634320,"componentType":5126,"count":7212,"type":"VEC3","name":"accessorNormals"},{"bufferView":2,"byteOffset":365184,"componentType":5126,"count":7212,"type":"VEC4","name":"accessorColors"},{"bufferView":3,"byteOffset":182592,"componentType":5126,"count":7212,"type":"VEC2","name":"accessorUVs"},{"bufferView":0,"byteOffset":60072,"componentType":5123,"count":756,"type":"SCALAR","name":"accessorIndices"},{"bufferView":1,"byteOffset":720864,"componentType":5126,"count":756,"max":[0.161006346,0.06997879,0.1329526],"min":[-0.161007762,-0.06997879,-0.132952482],"type":"VEC3","name":"accessorPositions"},{"bufferView":1,"byteOffset":729936,"componentType":5126,"count":756,"type":"VEC3","name":"accessorNormals"},{"bufferView":2,"byteOffset":480576,"componentType":5126,"count":756,"type":"VEC4","name":"accessorColors"},{"bufferView":3,"byteOffset":240288,"componentType":5126,"count":756,"type":"VEC2","name":"accessorUVs"}],"bufferViews":[{"buffer":0,"byteLength":61584,"name":"bufferViewScalar"},{"buffer":0,"byteOffset":61584,"byteLength":739008,"byteStride":12,"name":"bufferViewFloatVec3"},{"buffer":0,"byteOffset":800592,"byteLength":492672,"byteStride":16,"name":"bufferViewFloatVec4"},{"buffer":0,"byteOffset":1293264,"byteLength":246336,"byteStride":8,"name":"bufferViewFloatVec2"}],"buffers":[{"uri":"jiaojing.bin","byteLength":1539600}],"materials":[{"pbrMetallicRoughness":{"baseColorTexture":{"index":0},"metallicFactor":0.0,"roughnessFactor":0.450053632},"name":"Material #6"},{"pbrMetallicRoughness":{"baseColorFactor":[0.8352942,0.8352942,0.8352942,1.0],"metallicFactor":0.0,"roughnessFactor":0.450053632},"name":"02 - Default"}],"textures":[{"sampler":0,"source":0,"name":"HD_jiaojing_diff.png"}],"images":[{"uri":"./HD_jiaojing_diff.png"}],"samplers":[{"magFilter":9729,"minFilter":9987}]}